<mxfile host="app.diagrams.net" modified="2021-06-28T08:55:35.937Z" agent="5.0 (Windows NT 10.0; Win64; x64) AppleWebKit/537.36 (KHTML, like Gecko) Chrome/90.0.4430.212 Safari/537.36" etag="wxdXou6E-hxuocI5KHwu" version="14.8.0" type="github">
  <diagram id="qKX1--xFgHHBexEKRUjf" name="Page-1">
    <mxGraphModel dx="1822" dy="1162" grid="0" gridSize="10" guides="1" tooltips="1" connect="1" arrows="1" fold="1" page="0" pageScale="1" pageWidth="827" pageHeight="1169" math="0" shadow="0">
      <root>
        <mxCell id="0" />
        <mxCell id="1" parent="0" />
        <mxCell id="s5Ump-VfHsAbrPqj1HHM-357" value="" style="rounded=0;whiteSpace=wrap;html=1;shadow=1;glass=1;labelBackgroundColor=#ffffff;sketch=1;fontSize=15;strokeWidth=1;align=center;" vertex="1" parent="1">
          <mxGeometry x="2467" y="534" width="167" height="246" as="geometry" />
        </mxCell>
        <mxCell id="s5Ump-VfHsAbrPqj1HHM-192" value="" style="shape=table;html=1;whiteSpace=wrap;startSize=0;container=1;collapsible=0;childLayout=tableLayout;shadow=0;labelBackgroundColor=#ffffff;sketch=1;fontSize=15;align=left;fillColor=#f8cecc;strokeColor=#b85450;" vertex="1" parent="1">
          <mxGeometry x="1489" y="407" width="234" height="37" as="geometry" />
        </mxCell>
        <mxCell id="s5Ump-VfHsAbrPqj1HHM-193" value="" style="shape=partialRectangle;html=1;whiteSpace=wrap;collapsible=0;dropTarget=0;pointerEvents=0;fillColor=none;top=0;left=0;bottom=0;right=0;points=[[0,0.5],[1,0.5]];portConstraint=eastwest;" vertex="1" parent="s5Ump-VfHsAbrPqj1HHM-192">
          <mxGeometry width="234" height="37" as="geometry" />
        </mxCell>
        <mxCell id="s5Ump-VfHsAbrPqj1HHM-196" value="Apache|Jone|07-02|&lt;b&gt;&lt;font style=&quot;font-size: 17px&quot; color=&quot;#ea6b66&quot;&gt;89&lt;/font&gt;&lt;/b&gt;" style="shape=partialRectangle;html=1;whiteSpace=wrap;connectable=0;fillColor=none;top=0;left=0;bottom=0;right=0;overflow=hidden;fontSize=15;" vertex="1" parent="s5Ump-VfHsAbrPqj1HHM-193">
          <mxGeometry width="234" height="37" as="geometry" />
        </mxCell>
        <mxCell id="s5Ump-VfHsAbrPqj1HHM-95" value="" style="rounded=0;whiteSpace=wrap;html=1;shadow=0;labelBackgroundColor=none;sketch=1;fontSize=19;" vertex="1" parent="1">
          <mxGeometry x="402" y="660" width="155" height="332" as="geometry" />
        </mxCell>
        <mxCell id="s5Ump-VfHsAbrPqj1HHM-4" value="" style="rounded=0;orthogonalLoop=1;jettySize=auto;html=1;sketch=1;" edge="1" parent="1" source="s5Ump-VfHsAbrPqj1HHM-2" target="s5Ump-VfHsAbrPqj1HHM-3">
          <mxGeometry relative="1" as="geometry" />
        </mxCell>
        <mxCell id="s5Ump-VfHsAbrPqj1HHM-5" value="请求" style="edgeLabel;html=1;align=center;verticalAlign=middle;resizable=0;points=[];fontSize=17;" vertex="1" connectable="0" parent="s5Ump-VfHsAbrPqj1HHM-4">
          <mxGeometry x="-0.4474" y="1" relative="1" as="geometry">
            <mxPoint x="-1" y="17" as="offset" />
          </mxGeometry>
        </mxCell>
        <mxCell id="s5Ump-VfHsAbrPqj1HHM-2" value="" style="fontColor=#0066CC;verticalAlign=top;verticalLabelPosition=bottom;labelPosition=center;align=center;html=1;outlineConnect=0;fillColor=#CCCCCC;strokeColor=#6881B3;gradientColor=none;gradientDirection=north;strokeWidth=2;shape=mxgraph.networks.pc;sketch=1;shadow=0;" vertex="1" parent="1">
          <mxGeometry x="-151" y="49" width="100" height="70" as="geometry" />
        </mxCell>
        <mxCell id="s5Ump-VfHsAbrPqj1HHM-7" value="" style="edgeStyle=none;rounded=0;sketch=1;orthogonalLoop=1;jettySize=auto;html=1;fontSize=17;" edge="1" parent="1" source="s5Ump-VfHsAbrPqj1HHM-3" target="s5Ump-VfHsAbrPqj1HHM-6">
          <mxGeometry relative="1" as="geometry" />
        </mxCell>
        <mxCell id="s5Ump-VfHsAbrPqj1HHM-3" value="&lt;font style=&quot;font-size: 17px&quot;&gt;Web应用&lt;/font&gt;" style="rounded=0;whiteSpace=wrap;html=1;shadow=0;sketch=1;" vertex="1" parent="1">
          <mxGeometry x="-161" y="183" width="120" height="60" as="geometry" />
        </mxCell>
        <mxCell id="s5Ump-VfHsAbrPqj1HHM-6" value="Mysql" style="shape=cylinder3;whiteSpace=wrap;html=1;boundedLbl=1;backgroundOutline=1;size=15;shadow=0;sketch=1;fontSize=17;" vertex="1" parent="1">
          <mxGeometry x="-142.5" y="307" width="83" height="65" as="geometry" />
        </mxCell>
        <mxCell id="s5Ump-VfHsAbrPqj1HHM-8" value="" style="rounded=0;orthogonalLoop=1;jettySize=auto;html=1;sketch=1;" edge="1" parent="1" source="s5Ump-VfHsAbrPqj1HHM-10" target="s5Ump-VfHsAbrPqj1HHM-12">
          <mxGeometry relative="1" as="geometry" />
        </mxCell>
        <mxCell id="s5Ump-VfHsAbrPqj1HHM-9" value="请求" style="edgeLabel;html=1;align=center;verticalAlign=middle;resizable=0;points=[];fontSize=17;" vertex="1" connectable="0" parent="s5Ump-VfHsAbrPqj1HHM-8">
          <mxGeometry x="-0.4474" y="1" relative="1" as="geometry">
            <mxPoint x="-1" y="17" as="offset" />
          </mxGeometry>
        </mxCell>
        <mxCell id="s5Ump-VfHsAbrPqj1HHM-10" value="" style="fontColor=#0066CC;verticalAlign=top;verticalLabelPosition=bottom;labelPosition=center;align=center;html=1;outlineConnect=0;fillColor=#CCCCCC;strokeColor=#6881B3;gradientColor=none;gradientDirection=north;strokeWidth=2;shape=mxgraph.networks.pc;sketch=1;shadow=0;" vertex="1" parent="1">
          <mxGeometry x="229" y="43" width="100" height="70" as="geometry" />
        </mxCell>
        <mxCell id="s5Ump-VfHsAbrPqj1HHM-12" value="" style="rounded=0;whiteSpace=wrap;html=1;shadow=0;sketch=1;" vertex="1" parent="1">
          <mxGeometry x="138" y="177" width="287" height="150" as="geometry" />
        </mxCell>
        <mxCell id="s5Ump-VfHsAbrPqj1HHM-14" value="" style="edgeStyle=none;rounded=0;sketch=1;orthogonalLoop=1;jettySize=auto;html=1;fontSize=17;" edge="1" parent="1" target="s5Ump-VfHsAbrPqj1HHM-15">
          <mxGeometry relative="1" as="geometry">
            <mxPoint x="279" y="325" as="sourcePoint" />
          </mxGeometry>
        </mxCell>
        <mxCell id="s5Ump-VfHsAbrPqj1HHM-15" value="Mysql" style="shape=cylinder3;whiteSpace=wrap;html=1;boundedLbl=1;backgroundOutline=1;size=15;shadow=0;sketch=1;fontSize=17;" vertex="1" parent="1">
          <mxGeometry x="237.5" y="389" width="83" height="65" as="geometry" />
        </mxCell>
        <mxCell id="s5Ump-VfHsAbrPqj1HHM-16" value="&#xa;&#xa;&lt;span style=&quot;color: rgb(0, 0, 0); font-family: helvetica; font-size: 17px; font-style: normal; font-weight: 400; letter-spacing: normal; text-align: center; text-indent: 0px; text-transform: none; word-spacing: 0px; background-color: rgb(255, 255, 255); display: inline; float: none;&quot;&gt;Web应用&lt;/span&gt;&#xa;&#xa;" style="text;html=1;strokeColor=none;fillColor=none;align=center;verticalAlign=middle;whiteSpace=wrap;rounded=0;shadow=0;sketch=1;fontSize=17;" vertex="1" parent="1">
          <mxGeometry x="144" y="182" width="74" height="22" as="geometry" />
        </mxCell>
        <mxCell id="s5Ump-VfHsAbrPqj1HHM-17" value="" style="rounded=1;whiteSpace=wrap;html=1;shadow=0;sketch=1;fontSize=17;" vertex="1" parent="1">
          <mxGeometry x="148" y="261" width="269" height="58" as="geometry" />
        </mxCell>
        <mxCell id="s5Ump-VfHsAbrPqj1HHM-18" value="Connection1" style="rounded=0;whiteSpace=wrap;html=1;shadow=0;sketch=1;fontSize=13;fillColor=#d5e8d4;strokeColor=#82b366;" vertex="1" parent="1">
          <mxGeometry x="157.5" y="285" width="79" height="29" as="geometry" />
        </mxCell>
        <mxCell id="s5Ump-VfHsAbrPqj1HHM-19" value="Connection2" style="rounded=0;whiteSpace=wrap;html=1;shadow=0;sketch=1;fontSize=13;fillColor=#d5e8d4;strokeColor=#82b366;" vertex="1" parent="1">
          <mxGeometry x="241.5" y="285" width="79" height="29" as="geometry" />
        </mxCell>
        <mxCell id="s5Ump-VfHsAbrPqj1HHM-20" value="Connection3" style="rounded=0;whiteSpace=wrap;html=1;shadow=0;sketch=1;fontSize=13;fillColor=#d5e8d4;strokeColor=#82b366;" vertex="1" parent="1">
          <mxGeometry x="328.5" y="285" width="79" height="29" as="geometry" />
        </mxCell>
        <mxCell id="s5Ump-VfHsAbrPqj1HHM-24" value="&lt;font style=&quot;font-size: 12px&quot;&gt;连接池&lt;/font&gt;" style="text;html=1;strokeColor=none;fillColor=none;align=center;verticalAlign=middle;whiteSpace=wrap;rounded=0;shadow=0;sketch=1;fontSize=17;" vertex="1" parent="1">
          <mxGeometry x="155" y="263" width="45" height="18" as="geometry" />
        </mxCell>
        <mxCell id="s5Ump-VfHsAbrPqj1HHM-25" value="&lt;font style=&quot;font-size: 20px&quot;&gt;app&lt;/font&gt;" style="rounded=1;whiteSpace=wrap;html=1;shadow=0;sketch=1;fontSize=13;" vertex="1" parent="1">
          <mxGeometry x="226" y="196" width="112" height="35" as="geometry" />
        </mxCell>
        <mxCell id="s5Ump-VfHsAbrPqj1HHM-26" value="" style="endArrow=classic;html=1;fontSize=13;exitX=0.5;exitY=1;exitDx=0;exitDy=0;entryX=0.5;entryY=0;entryDx=0;entryDy=0;sketch=1;" edge="1" parent="1" source="s5Ump-VfHsAbrPqj1HHM-25" target="s5Ump-VfHsAbrPqj1HHM-17">
          <mxGeometry width="50" height="50" relative="1" as="geometry">
            <mxPoint x="581" y="278" as="sourcePoint" />
            <mxPoint x="631" y="228" as="targetPoint" />
          </mxGeometry>
        </mxCell>
        <mxCell id="s5Ump-VfHsAbrPqj1HHM-27" value="获取连接" style="text;html=1;strokeColor=none;fillColor=none;align=center;verticalAlign=middle;whiteSpace=wrap;rounded=0;shadow=0;sketch=1;fontSize=13;" vertex="1" parent="1">
          <mxGeometry x="284" y="246" width="64" height="1" as="geometry" />
        </mxCell>
        <mxCell id="s5Ump-VfHsAbrPqj1HHM-32" style="edgeStyle=orthogonalEdgeStyle;rounded=0;sketch=1;orthogonalLoop=1;jettySize=auto;html=1;exitX=0.5;exitY=1;exitDx=0;exitDy=0;exitPerimeter=0;entryX=0.5;entryY=0;entryDx=0;entryDy=0;entryPerimeter=0;fontSize=13;" edge="1" parent="1" source="s5Ump-VfHsAbrPqj1HHM-28" target="s5Ump-VfHsAbrPqj1HHM-29">
          <mxGeometry relative="1" as="geometry" />
        </mxCell>
        <mxCell id="s5Ump-VfHsAbrPqj1HHM-28" value="主库" style="shape=cylinder3;whiteSpace=wrap;html=1;boundedLbl=1;backgroundOutline=1;size=15;shadow=0;sketch=1;fontSize=13;fillColor=#d5e8d4;strokeColor=#82b366;" vertex="1" parent="1">
          <mxGeometry x="842" y="110" width="98" height="72" as="geometry" />
        </mxCell>
        <mxCell id="s5Ump-VfHsAbrPqj1HHM-29" value="从库" style="shape=cylinder3;whiteSpace=wrap;html=1;boundedLbl=1;backgroundOutline=1;size=15;shadow=0;sketch=1;fontSize=13;fillColor=#ffe6cc;strokeColor=#d79b00;" vertex="1" parent="1">
          <mxGeometry x="714" y="242" width="98" height="72" as="geometry" />
        </mxCell>
        <mxCell id="s5Ump-VfHsAbrPqj1HHM-30" value="从库" style="shape=cylinder3;whiteSpace=wrap;html=1;boundedLbl=1;backgroundOutline=1;size=15;shadow=0;sketch=1;fontSize=13;fillColor=#ffe6cc;strokeColor=#d79b00;" vertex="1" parent="1">
          <mxGeometry x="842" y="242" width="98" height="72" as="geometry" />
        </mxCell>
        <mxCell id="s5Ump-VfHsAbrPqj1HHM-31" value="从库" style="shape=cylinder3;whiteSpace=wrap;html=1;boundedLbl=1;backgroundOutline=1;size=15;shadow=0;sketch=1;fontSize=13;fillColor=#ffe6cc;strokeColor=#d79b00;" vertex="1" parent="1">
          <mxGeometry x="970" y="242" width="98" height="72" as="geometry" />
        </mxCell>
        <mxCell id="s5Ump-VfHsAbrPqj1HHM-35" value="" style="endArrow=classic;html=1;fontSize=13;entryX=0.5;entryY=0;entryDx=0;entryDy=0;entryPerimeter=0;edgeStyle=orthogonalEdgeStyle;sketch=1;" edge="1" parent="1" target="s5Ump-VfHsAbrPqj1HHM-30">
          <mxGeometry width="50" height="50" relative="1" as="geometry">
            <mxPoint x="891" y="186" as="sourcePoint" />
            <mxPoint x="1272" y="43" as="targetPoint" />
          </mxGeometry>
        </mxCell>
        <mxCell id="s5Ump-VfHsAbrPqj1HHM-36" value="" style="endArrow=classic;html=1;fontSize=13;exitX=0.5;exitY=1;exitDx=0;exitDy=0;exitPerimeter=0;entryX=0.5;entryY=0;entryDx=0;entryDy=0;entryPerimeter=0;edgeStyle=orthogonalEdgeStyle;sketch=1;" edge="1" parent="1" source="s5Ump-VfHsAbrPqj1HHM-28" target="s5Ump-VfHsAbrPqj1HHM-31">
          <mxGeometry width="50" height="50" relative="1" as="geometry">
            <mxPoint x="1222" y="93" as="sourcePoint" />
            <mxPoint x="1272" y="43" as="targetPoint" />
          </mxGeometry>
        </mxCell>
        <mxCell id="s5Ump-VfHsAbrPqj1HHM-39" value="" style="shape=flexArrow;endArrow=classic;html=1;fontSize=13;shadow=0;sketch=1;fillColor=#d5e8d4;strokeColor=#82b366;" edge="1" parent="1">
          <mxGeometry width="50" height="50" relative="1" as="geometry">
            <mxPoint x="565" y="150" as="sourcePoint" />
            <mxPoint x="838" y="150" as="targetPoint" />
          </mxGeometry>
        </mxCell>
        <mxCell id="s5Ump-VfHsAbrPqj1HHM-40" value="&lt;font style=&quot;font-size: 19px&quot;&gt;事务请求&lt;/font&gt;" style="edgeLabel;html=1;align=center;verticalAlign=middle;resizable=0;points=[];fontSize=13;labelBackgroundColor=#ffffff;" vertex="1" connectable="0" parent="s5Ump-VfHsAbrPqj1HHM-39">
          <mxGeometry x="-0.4554" relative="1" as="geometry">
            <mxPoint x="47" y="-1" as="offset" />
          </mxGeometry>
        </mxCell>
        <mxCell id="s5Ump-VfHsAbrPqj1HHM-41" value="" style="shape=flexArrow;endArrow=classic;html=1;shadow=0;fontSize=13;sketch=1;fillColor=#ffe6cc;strokeColor=#d79b00;" edge="1" parent="1">
          <mxGeometry width="50" height="50" relative="1" as="geometry">
            <mxPoint x="565" y="280" as="sourcePoint" />
            <mxPoint x="710" y="280" as="targetPoint" />
          </mxGeometry>
        </mxCell>
        <mxCell id="s5Ump-VfHsAbrPqj1HHM-42" value="&lt;font style=&quot;font-size: 19px;&quot;&gt;查询请求&lt;/font&gt;" style="edgeLabel;html=1;align=center;verticalAlign=middle;resizable=0;points=[];fontSize=19;labelBackgroundColor=#ffffff;" vertex="1" connectable="0" parent="s5Ump-VfHsAbrPqj1HHM-41">
          <mxGeometry x="-0.3" y="-1" relative="1" as="geometry">
            <mxPoint as="offset" />
          </mxGeometry>
        </mxCell>
        <mxCell id="s5Ump-VfHsAbrPqj1HHM-45" value="电商库" style="shape=cylinder3;whiteSpace=wrap;html=1;boundedLbl=1;backgroundOutline=1;size=15;shadow=0;labelBackgroundColor=#ffffff;sketch=1;fontSize=19;fillColor=#d5e8d4;strokeColor=#82b366;" vertex="1" parent="1">
          <mxGeometry x="42" y="554" width="107" height="73" as="geometry" />
        </mxCell>
        <mxCell id="s5Ump-VfHsAbrPqj1HHM-56" value="" style="edgeStyle=orthogonalEdgeStyle;rounded=0;sketch=1;orthogonalLoop=1;jettySize=auto;html=1;shadow=0;fontSize=19;" edge="1" parent="1" source="s5Ump-VfHsAbrPqj1HHM-46" target="s5Ump-VfHsAbrPqj1HHM-55">
          <mxGeometry relative="1" as="geometry" />
        </mxCell>
        <mxCell id="s5Ump-VfHsAbrPqj1HHM-46" value="用户库" style="shape=cylinder3;whiteSpace=wrap;html=1;boundedLbl=1;backgroundOutline=1;size=15;shadow=0;labelBackgroundColor=#ffffff;sketch=1;fontSize=19;fillColor=#ffe6cc;strokeColor=#d79b00;" vertex="1" parent="1">
          <mxGeometry x="-119" y="690" width="100" height="76" as="geometry" />
        </mxCell>
        <mxCell id="s5Ump-VfHsAbrPqj1HHM-47" value="订单库" style="shape=cylinder3;whiteSpace=wrap;html=1;boundedLbl=1;backgroundOutline=1;size=15;shadow=0;labelBackgroundColor=#ffffff;sketch=1;fontSize=19;fillColor=#ffe6cc;strokeColor=#d79b00;" vertex="1" parent="1">
          <mxGeometry x="48" y="690" width="95" height="76" as="geometry" />
        </mxCell>
        <mxCell id="s5Ump-VfHsAbrPqj1HHM-48" value="商品库" style="shape=cylinder3;whiteSpace=wrap;html=1;boundedLbl=1;backgroundOutline=1;size=15;shadow=0;labelBackgroundColor=#ffffff;sketch=1;fontSize=19;fillColor=#ffe6cc;strokeColor=#d79b00;" vertex="1" parent="1">
          <mxGeometry x="193" y="690" width="100" height="76" as="geometry" />
        </mxCell>
        <mxCell id="s5Ump-VfHsAbrPqj1HHM-49" value="" style="endArrow=classic;html=1;shadow=0;fontSize=19;exitX=0.5;exitY=1;exitDx=0;exitDy=0;exitPerimeter=0;entryX=0.6;entryY=-0.013;entryDx=0;entryDy=0;entryPerimeter=0;edgeStyle=orthogonalEdgeStyle;sketch=1;" edge="1" parent="1" source="s5Ump-VfHsAbrPqj1HHM-45" target="s5Ump-VfHsAbrPqj1HHM-46">
          <mxGeometry width="50" height="50" relative="1" as="geometry">
            <mxPoint x="80" y="679" as="sourcePoint" />
            <mxPoint x="130" y="629" as="targetPoint" />
          </mxGeometry>
        </mxCell>
        <mxCell id="s5Ump-VfHsAbrPqj1HHM-50" value="" style="endArrow=classic;html=1;shadow=0;fontSize=19;exitX=0.5;exitY=1;exitDx=0;exitDy=0;exitPerimeter=0;entryX=0.5;entryY=0;entryDx=0;entryDy=0;entryPerimeter=0;edgeStyle=orthogonalEdgeStyle;sketch=1;" edge="1" parent="1" source="s5Ump-VfHsAbrPqj1HHM-45" target="s5Ump-VfHsAbrPqj1HHM-48">
          <mxGeometry width="50" height="50" relative="1" as="geometry">
            <mxPoint x="235" y="661" as="sourcePoint" />
            <mxPoint x="285" y="611" as="targetPoint" />
          </mxGeometry>
        </mxCell>
        <mxCell id="s5Ump-VfHsAbrPqj1HHM-51" value="" style="endArrow=classic;html=1;shadow=0;fontSize=19;exitX=0.5;exitY=1;exitDx=0;exitDy=0;exitPerimeter=0;entryX=0.5;entryY=0;entryDx=0;entryDy=0;entryPerimeter=0;sketch=1;" edge="1" parent="1" source="s5Ump-VfHsAbrPqj1HHM-45" target="s5Ump-VfHsAbrPqj1HHM-47">
          <mxGeometry width="50" height="50" relative="1" as="geometry">
            <mxPoint x="230" y="623" as="sourcePoint" />
            <mxPoint x="280" y="573" as="targetPoint" />
          </mxGeometry>
        </mxCell>
        <mxCell id="s5Ump-VfHsAbrPqj1HHM-52" value="垂直拆分" style="text;html=1;strokeColor=none;fillColor=none;align=center;verticalAlign=middle;whiteSpace=wrap;rounded=0;shadow=0;labelBackgroundColor=#ffffff;sketch=1;fontSize=19;" vertex="1" parent="1">
          <mxGeometry x="-5" y="634" width="95" height="13" as="geometry" />
        </mxCell>
        <mxCell id="s5Ump-VfHsAbrPqj1HHM-55" value="uid%10=0" style="shape=cylinder3;whiteSpace=wrap;html=1;boundedLbl=1;backgroundOutline=1;size=15;shadow=0;labelBackgroundColor=#ffffff;sketch=1;fontSize=19;fillColor=#fff2cc;strokeColor=#d6b656;" vertex="1" parent="1">
          <mxGeometry x="-217" y="837" width="100" height="76" as="geometry" />
        </mxCell>
        <mxCell id="s5Ump-VfHsAbrPqj1HHM-57" value="对用户表进行水平拆分" style="text;html=1;strokeColor=none;fillColor=none;align=center;verticalAlign=middle;whiteSpace=wrap;rounded=0;shadow=0;labelBackgroundColor=#ffffff;sketch=1;fontSize=19;" vertex="1" parent="1">
          <mxGeometry x="-227" y="773" width="202" height="17" as="geometry" />
        </mxCell>
        <mxCell id="s5Ump-VfHsAbrPqj1HHM-58" value="uid%10=1" style="shape=cylinder3;whiteSpace=wrap;html=1;boundedLbl=1;backgroundOutline=1;size=15;shadow=0;labelBackgroundColor=#ffffff;sketch=1;fontSize=19;fillColor=#fff2cc;strokeColor=#d6b656;" vertex="1" parent="1">
          <mxGeometry x="-99" y="840" width="100" height="76" as="geometry" />
        </mxCell>
        <mxCell id="s5Ump-VfHsAbrPqj1HHM-59" value="uid%10=2" style="shape=cylinder3;whiteSpace=wrap;html=1;boundedLbl=1;backgroundOutline=1;size=15;shadow=0;labelBackgroundColor=#ffffff;sketch=1;fontSize=19;fillColor=#fff2cc;strokeColor=#d6b656;" vertex="1" parent="1">
          <mxGeometry x="16" y="840" width="100" height="76" as="geometry" />
        </mxCell>
        <mxCell id="s5Ump-VfHsAbrPqj1HHM-60" value="uid%10=..." style="shape=cylinder3;whiteSpace=wrap;html=1;boundedLbl=1;backgroundOutline=1;size=15;shadow=0;labelBackgroundColor=#ffffff;sketch=1;fontSize=19;fillColor=#fff2cc;strokeColor=#d6b656;" vertex="1" parent="1">
          <mxGeometry x="131" y="840" width="100" height="76" as="geometry" />
        </mxCell>
        <mxCell id="s5Ump-VfHsAbrPqj1HHM-61" value="" style="endArrow=classic;html=1;shadow=0;fontSize=19;exitX=0.5;exitY=1;exitDx=0;exitDy=0;exitPerimeter=0;entryX=0.5;entryY=0;entryDx=0;entryDy=0;entryPerimeter=0;edgeStyle=orthogonalEdgeStyle;sketch=1;" edge="1" parent="1" source="s5Ump-VfHsAbrPqj1HHM-46" target="s5Ump-VfHsAbrPqj1HHM-58">
          <mxGeometry width="50" height="50" relative="1" as="geometry">
            <mxPoint x="14" y="809" as="sourcePoint" />
            <mxPoint x="64" y="759" as="targetPoint" />
          </mxGeometry>
        </mxCell>
        <mxCell id="s5Ump-VfHsAbrPqj1HHM-62" value="" style="endArrow=classic;html=1;shadow=0;fontSize=19;entryX=0.5;entryY=0;entryDx=0;entryDy=0;entryPerimeter=0;edgeStyle=orthogonalEdgeStyle;sketch=1;" edge="1" parent="1" target="s5Ump-VfHsAbrPqj1HHM-60">
          <mxGeometry width="50" height="50" relative="1" as="geometry">
            <mxPoint x="-69" y="768" as="sourcePoint" />
            <mxPoint x="384" y="604" as="targetPoint" />
            <Array as="points">
              <mxPoint x="-69" y="804" />
              <mxPoint x="181" y="804" />
            </Array>
          </mxGeometry>
        </mxCell>
        <mxCell id="s5Ump-VfHsAbrPqj1HHM-63" value="" style="endArrow=classic;html=1;shadow=0;fontSize=19;exitX=0.5;exitY=1;exitDx=0;exitDy=0;exitPerimeter=0;entryX=0.5;entryY=0;entryDx=0;entryDy=0;entryPerimeter=0;edgeStyle=orthogonalEdgeStyle;sketch=1;" edge="1" parent="1" source="s5Ump-VfHsAbrPqj1HHM-46" target="s5Ump-VfHsAbrPqj1HHM-59">
          <mxGeometry width="50" height="50" relative="1" as="geometry">
            <mxPoint x="334" y="654" as="sourcePoint" />
            <mxPoint x="384" y="604" as="targetPoint" />
          </mxGeometry>
        </mxCell>
        <mxCell id="s5Ump-VfHsAbrPqj1HHM-64" value="" style="rounded=0;orthogonalLoop=1;jettySize=auto;html=1;sketch=1;" edge="1" parent="1" source="s5Ump-VfHsAbrPqj1HHM-66" target="s5Ump-VfHsAbrPqj1HHM-68">
          <mxGeometry relative="1" as="geometry" />
        </mxCell>
        <mxCell id="s5Ump-VfHsAbrPqj1HHM-65" value="请求" style="edgeLabel;html=1;align=center;verticalAlign=middle;resizable=0;points=[];fontSize=17;" vertex="1" connectable="0" parent="s5Ump-VfHsAbrPqj1HHM-64">
          <mxGeometry x="-0.4474" y="1" relative="1" as="geometry">
            <mxPoint x="-1" y="17" as="offset" />
          </mxGeometry>
        </mxCell>
        <mxCell id="s5Ump-VfHsAbrPqj1HHM-66" value="" style="fontColor=#0066CC;verticalAlign=top;verticalLabelPosition=bottom;labelPosition=center;align=center;html=1;outlineConnect=0;fillColor=#CCCCCC;strokeColor=#6881B3;gradientColor=none;gradientDirection=north;strokeWidth=2;shape=mxgraph.networks.pc;sketch=1;shadow=0;" vertex="1" parent="1">
          <mxGeometry x="605" y="457" width="100" height="70" as="geometry" />
        </mxCell>
        <mxCell id="s5Ump-VfHsAbrPqj1HHM-67" value="" style="edgeStyle=orthogonalEdgeStyle;rounded=0;sketch=1;orthogonalLoop=1;jettySize=auto;html=1;fontSize=17;exitX=0.5;exitY=1;exitDx=0;exitDy=0;" edge="1" parent="1" source="s5Ump-VfHsAbrPqj1HHM-68" target="s5Ump-VfHsAbrPqj1HHM-69">
          <mxGeometry relative="1" as="geometry" />
        </mxCell>
        <mxCell id="s5Ump-VfHsAbrPqj1HHM-68" value="&lt;font style=&quot;font-size: 17px&quot;&gt;Web应用&lt;/font&gt;" style="rounded=0;whiteSpace=wrap;html=1;shadow=0;sketch=1;" vertex="1" parent="1">
          <mxGeometry x="595" y="591" width="120" height="60" as="geometry" />
        </mxCell>
        <mxCell id="s5Ump-VfHsAbrPqj1HHM-69" value="Mysql" style="shape=cylinder3;whiteSpace=wrap;html=1;boundedLbl=1;backgroundOutline=1;size=15;shadow=0;sketch=1;fontSize=17;fillColor=#ffe6cc;strokeColor=#d79b00;" vertex="1" parent="1">
          <mxGeometry x="761" y="644" width="83" height="65" as="geometry" />
        </mxCell>
        <mxCell id="s5Ump-VfHsAbrPqj1HHM-70" value="redis" style="shape=cylinder3;whiteSpace=wrap;html=1;boundedLbl=1;backgroundOutline=1;size=15;shadow=0;sketch=1;fontSize=17;fillColor=#ffe6cc;strokeColor=#d79b00;" vertex="1" parent="1">
          <mxGeometry x="761" y="722" width="83" height="65" as="geometry" />
        </mxCell>
        <mxCell id="s5Ump-VfHsAbrPqj1HHM-71" value="LevelDB" style="shape=cylinder3;whiteSpace=wrap;html=1;boundedLbl=1;backgroundOutline=1;size=15;shadow=0;sketch=1;fontSize=17;fillColor=#ffe6cc;strokeColor=#d79b00;" vertex="1" parent="1">
          <mxGeometry x="859" y="722" width="83" height="65" as="geometry" />
        </mxCell>
        <mxCell id="s5Ump-VfHsAbrPqj1HHM-72" value="" style="endArrow=classic;html=1;shadow=0;fontSize=19;exitX=0.5;exitY=1;exitDx=0;exitDy=0;entryX=0;entryY=0.5;entryDx=0;entryDy=0;entryPerimeter=0;edgeStyle=orthogonalEdgeStyle;sketch=1;" edge="1" parent="1" source="s5Ump-VfHsAbrPqj1HHM-68" target="s5Ump-VfHsAbrPqj1HHM-70">
          <mxGeometry width="50" height="50" relative="1" as="geometry">
            <mxPoint x="671" y="792" as="sourcePoint" />
            <mxPoint x="721" y="742" as="targetPoint" />
          </mxGeometry>
        </mxCell>
        <mxCell id="s5Ump-VfHsAbrPqj1HHM-73" value="Hbase" style="shape=cylinder3;whiteSpace=wrap;html=1;boundedLbl=1;backgroundOutline=1;size=15;shadow=0;sketch=1;fontSize=17;fillColor=#ffe6cc;strokeColor=#d79b00;" vertex="1" parent="1">
          <mxGeometry x="761" y="801" width="83" height="65" as="geometry" />
        </mxCell>
        <mxCell id="s5Ump-VfHsAbrPqj1HHM-74" value="&lt;font style=&quot;font-size: 16px&quot;&gt;Cassandra&lt;/font&gt;" style="shape=cylinder3;whiteSpace=wrap;html=1;boundedLbl=1;backgroundOutline=1;size=15;shadow=0;sketch=1;fontSize=17;fillColor=#ffe6cc;strokeColor=#d79b00;" vertex="1" parent="1">
          <mxGeometry x="859" y="801" width="83" height="65" as="geometry" />
        </mxCell>
        <mxCell id="s5Ump-VfHsAbrPqj1HHM-75" value="MongoDB" style="shape=cylinder3;whiteSpace=wrap;html=1;boundedLbl=1;backgroundOutline=1;size=15;shadow=0;sketch=1;fontSize=17;fillColor=#ffe6cc;strokeColor=#d79b00;" vertex="1" parent="1">
          <mxGeometry x="761" y="880" width="83" height="65" as="geometry" />
        </mxCell>
        <mxCell id="s5Ump-VfHsAbrPqj1HHM-76" value="CouchDB" style="shape=cylinder3;whiteSpace=wrap;html=1;boundedLbl=1;backgroundOutline=1;size=15;shadow=0;sketch=1;fontSize=17;fillColor=#ffe6cc;strokeColor=#d79b00;" vertex="1" parent="1">
          <mxGeometry x="859" y="880" width="83" height="65" as="geometry" />
        </mxCell>
        <mxCell id="s5Ump-VfHsAbrPqj1HHM-77" value="&lt;font style=&quot;font-size: 12px&quot;&gt;MemcacheDB&lt;/font&gt;" style="shape=cylinder3;whiteSpace=wrap;html=1;boundedLbl=1;backgroundOutline=1;size=15;shadow=0;sketch=1;fontSize=17;fillColor=#ffe6cc;strokeColor=#d79b00;" vertex="1" parent="1">
          <mxGeometry x="957" y="722" width="83" height="65" as="geometry" />
        </mxCell>
        <mxCell id="s5Ump-VfHsAbrPqj1HHM-78" value="Neo4j" style="shape=cylinder3;whiteSpace=wrap;html=1;boundedLbl=1;backgroundOutline=1;size=15;shadow=0;sketch=1;fontSize=17;fillColor=#ffe6cc;strokeColor=#d79b00;" vertex="1" parent="1">
          <mxGeometry x="761" y="955" width="83" height="65" as="geometry" />
        </mxCell>
        <mxCell id="s5Ump-VfHsAbrPqj1HHM-79" value="GraphSQL" style="shape=cylinder3;whiteSpace=wrap;html=1;boundedLbl=1;backgroundOutline=1;size=15;shadow=0;sketch=1;fontSize=17;fillColor=#ffe6cc;strokeColor=#d79b00;" vertex="1" parent="1">
          <mxGeometry x="859" y="955" width="83" height="65" as="geometry" />
        </mxCell>
        <mxCell id="s5Ump-VfHsAbrPqj1HHM-81" value="" style="endArrow=classic;html=1;shadow=0;fontSize=19;exitX=0.5;exitY=1;exitDx=0;exitDy=0;entryX=0.012;entryY=0.538;entryDx=0;entryDy=0;entryPerimeter=0;edgeStyle=orthogonalEdgeStyle;sketch=1;" edge="1" parent="1" source="s5Ump-VfHsAbrPqj1HHM-68" target="s5Ump-VfHsAbrPqj1HHM-78">
          <mxGeometry width="50" height="50" relative="1" as="geometry">
            <mxPoint x="601" y="753" as="sourcePoint" />
            <mxPoint x="651" y="703" as="targetPoint" />
          </mxGeometry>
        </mxCell>
        <mxCell id="s5Ump-VfHsAbrPqj1HHM-82" value="" style="endArrow=classic;html=1;shadow=0;fontSize=19;entryX=0;entryY=0.523;entryDx=0;entryDy=0;entryPerimeter=0;edgeStyle=orthogonalEdgeStyle;sketch=1;" edge="1" parent="1" target="s5Ump-VfHsAbrPqj1HHM-75">
          <mxGeometry width="50" height="50" relative="1" as="geometry">
            <mxPoint x="655" y="654" as="sourcePoint" />
            <mxPoint x="560" y="709" as="targetPoint" />
            <Array as="points">
              <mxPoint x="655" y="914" />
            </Array>
          </mxGeometry>
        </mxCell>
        <mxCell id="s5Ump-VfHsAbrPqj1HHM-83" value="" style="endArrow=classic;html=1;shadow=0;fontSize=19;entryX=0;entryY=0.5;entryDx=0;entryDy=0;entryPerimeter=0;edgeStyle=orthogonalEdgeStyle;sketch=1;" edge="1" parent="1" target="s5Ump-VfHsAbrPqj1HHM-73">
          <mxGeometry width="50" height="50" relative="1" as="geometry">
            <mxPoint x="654" y="652" as="sourcePoint" />
            <mxPoint x="560" y="709" as="targetPoint" />
            <Array as="points">
              <mxPoint x="654" y="834" />
            </Array>
          </mxGeometry>
        </mxCell>
        <mxCell id="s5Ump-VfHsAbrPqj1HHM-84" value="&lt;font style=&quot;font-size: 14px&quot;&gt;关系型数据库&lt;/font&gt;" style="text;html=1;strokeColor=none;fillColor=none;align=center;verticalAlign=middle;whiteSpace=wrap;rounded=0;shadow=0;labelBackgroundColor=none;sketch=1;fontSize=19;" vertex="1" parent="1">
          <mxGeometry x="654" y="662" width="104" as="geometry" />
        </mxCell>
        <mxCell id="s5Ump-VfHsAbrPqj1HHM-85" value="Oracle" style="shape=cylinder3;whiteSpace=wrap;html=1;boundedLbl=1;backgroundOutline=1;size=15;shadow=0;sketch=1;fontSize=17;fillColor=#ffe6cc;strokeColor=#d79b00;" vertex="1" parent="1">
          <mxGeometry x="859" y="644" width="83" height="65" as="geometry" />
        </mxCell>
        <mxCell id="s5Ump-VfHsAbrPqj1HHM-86" value="&lt;font style=&quot;font-size: 14px&quot;&gt;PostgreSQL&lt;/font&gt;" style="shape=cylinder3;whiteSpace=wrap;html=1;boundedLbl=1;backgroundOutline=1;size=15;shadow=0;sketch=1;fontSize=17;fillColor=#ffe6cc;strokeColor=#d79b00;" vertex="1" parent="1">
          <mxGeometry x="957" y="644" width="83" height="65" as="geometry" />
        </mxCell>
        <mxCell id="s5Ump-VfHsAbrPqj1HHM-87" value="&lt;span style=&quot;font-size: 14px&quot;&gt;K-V数据库&lt;/span&gt;" style="text;html=1;strokeColor=none;fillColor=none;align=center;verticalAlign=middle;whiteSpace=wrap;rounded=0;shadow=0;labelBackgroundColor=none;sketch=1;fontSize=19;" vertex="1" parent="1">
          <mxGeometry x="665" y="739" width="73" as="geometry" />
        </mxCell>
        <mxCell id="s5Ump-VfHsAbrPqj1HHM-88" value="&lt;span style=&quot;font-size: 14px&quot;&gt;列式数据库&lt;/span&gt;" style="text;html=1;strokeColor=none;fillColor=none;align=center;verticalAlign=middle;whiteSpace=wrap;rounded=0;shadow=0;labelBackgroundColor=none;sketch=1;fontSize=19;" vertex="1" parent="1">
          <mxGeometry x="665" y="816" width="73" as="geometry" />
        </mxCell>
        <mxCell id="s5Ump-VfHsAbrPqj1HHM-89" value="&lt;span style=&quot;font-size: 14px&quot;&gt;文档型数据库&lt;/span&gt;" style="text;html=1;strokeColor=none;fillColor=none;align=center;verticalAlign=middle;whiteSpace=wrap;rounded=0;shadow=0;labelBackgroundColor=none;sketch=1;fontSize=19;" vertex="1" parent="1">
          <mxGeometry x="662" y="896" width="89" as="geometry" />
        </mxCell>
        <mxCell id="s5Ump-VfHsAbrPqj1HHM-90" value="&lt;span style=&quot;font-size: 14px&quot;&gt;图形数据库&lt;/span&gt;" style="text;html=1;strokeColor=none;fillColor=none;align=center;verticalAlign=middle;whiteSpace=wrap;rounded=0;shadow=0;labelBackgroundColor=none;sketch=1;fontSize=19;" vertex="1" parent="1">
          <mxGeometry x="657" y="972" width="89" as="geometry" />
        </mxCell>
        <mxCell id="s5Ump-VfHsAbrPqj1HHM-91" value="TIDB" style="shape=cylinder3;whiteSpace=wrap;html=1;boundedLbl=1;backgroundOutline=1;size=15;shadow=0;sketch=1;fontSize=17;fillColor=#ffe6cc;strokeColor=#d79b00;" vertex="1" parent="1">
          <mxGeometry x="441" y="739" width="83" height="65" as="geometry" />
        </mxCell>
        <mxCell id="s5Ump-VfHsAbrPqj1HHM-92" value="&lt;font style=&quot;font-size: 14px&quot;&gt;OceanBase&lt;/font&gt;" style="shape=cylinder3;whiteSpace=wrap;html=1;boundedLbl=1;backgroundOutline=1;size=15;shadow=0;sketch=1;fontSize=17;fillColor=#ffe6cc;strokeColor=#d79b00;" vertex="1" parent="1">
          <mxGeometry x="441" y="821" width="83" height="65" as="geometry" />
        </mxCell>
        <mxCell id="s5Ump-VfHsAbrPqj1HHM-94" value="" style="endArrow=classic;html=1;shadow=0;fontSize=19;edgeStyle=orthogonalEdgeStyle;sketch=1;" edge="1" parent="1">
          <mxGeometry width="50" height="50" relative="1" as="geometry">
            <mxPoint x="613" y="652" as="sourcePoint" />
            <mxPoint x="555" y="884" as="targetPoint" />
            <Array as="points">
              <mxPoint x="613" y="652" />
              <mxPoint x="613" y="884" />
            </Array>
          </mxGeometry>
        </mxCell>
        <mxCell id="s5Ump-VfHsAbrPqj1HHM-101" value="&lt;span style=&quot;font-weight: 700&quot;&gt;NewSql&lt;/span&gt;" style="edgeLabel;html=1;align=center;verticalAlign=middle;resizable=0;points=[];fontSize=16;" vertex="1" connectable="0" parent="s5Ump-VfHsAbrPqj1HHM-94">
          <mxGeometry x="-0.3709" y="-1" relative="1" as="geometry">
            <mxPoint as="offset" />
          </mxGeometry>
        </mxCell>
        <mxCell id="s5Ump-VfHsAbrPqj1HHM-97" value="&lt;span style=&quot;font-size: 14px&quot;&gt;结合了Nosql和SQL的优点&lt;/span&gt;" style="text;html=1;strokeColor=none;fillColor=none;align=left;verticalAlign=middle;whiteSpace=wrap;rounded=0;shadow=0;labelBackgroundColor=none;sketch=1;fontSize=19;" vertex="1" parent="1">
          <mxGeometry x="408" y="690" width="149" as="geometry" />
        </mxCell>
        <mxCell id="s5Ump-VfHsAbrPqj1HHM-99" value="&lt;font style=&quot;font-size: 14px&quot;&gt;VOLTDB&lt;/font&gt;" style="shape=cylinder3;whiteSpace=wrap;html=1;boundedLbl=1;backgroundOutline=1;size=15;shadow=0;sketch=1;fontSize=17;fillColor=#ffe6cc;strokeColor=#d79b00;" vertex="1" parent="1">
          <mxGeometry x="443" y="903" width="83" height="65" as="geometry" />
        </mxCell>
        <mxCell id="s5Ump-VfHsAbrPqj1HHM-107" value="&lt;p style=&quot;margin: 0px ; margin-top: 4px ; text-align: center&quot;&gt;&lt;b&gt;Employee&lt;/b&gt;&lt;/p&gt;&lt;hr size=&quot;1&quot;&gt;&lt;p style=&quot;margin: 0px ; margin-left: 4px&quot;&gt;Name：Sarah&lt;/p&gt;" style="verticalAlign=top;align=left;overflow=fill;fontSize=12;fontFamily=Helvetica;html=1;shadow=0;labelBackgroundColor=none;sketch=1;fillColor=#dae8fc;strokeColor=#6c8ebf;" vertex="1" parent="1">
          <mxGeometry x="-186" y="1118" width="158" height="60" as="geometry" />
        </mxCell>
        <mxCell id="s5Ump-VfHsAbrPqj1HHM-108" value="&lt;p style=&quot;margin: 0px ; margin-top: 4px ; text-align: center&quot;&gt;&lt;b&gt;Department&lt;/b&gt;&lt;/p&gt;&lt;hr size=&quot;1&quot;&gt;&lt;p style=&quot;margin: 0px ; margin-left: 4px&quot;&gt;Name：Head Office&lt;/p&gt;" style="verticalAlign=top;align=left;overflow=fill;fontSize=12;fontFamily=Helvetica;html=1;shadow=0;labelBackgroundColor=none;sketch=1;fillColor=#d5e8d4;strokeColor=#82b366;" vertex="1" parent="1">
          <mxGeometry x="-362" y="1245" width="158" height="60" as="geometry" />
        </mxCell>
        <mxCell id="s5Ump-VfHsAbrPqj1HHM-109" value="&lt;p style=&quot;margin: 0px ; margin-top: 4px ; text-align: center&quot;&gt;&lt;b&gt;Employee&lt;/b&gt;&lt;/p&gt;&lt;hr size=&quot;1&quot;&gt;&lt;p style=&quot;margin: 0px ; margin-left: 4px&quot;&gt;Name：Alok&lt;/p&gt;" style="verticalAlign=top;align=left;overflow=fill;fontSize=12;fontFamily=Helvetica;html=1;shadow=0;labelBackgroundColor=none;sketch=1;fillColor=#dae8fc;strokeColor=#6c8ebf;" vertex="1" parent="1">
          <mxGeometry x="-99" y="1287" width="158" height="60" as="geometry" />
        </mxCell>
        <mxCell id="s5Ump-VfHsAbrPqj1HHM-110" value="&lt;p style=&quot;margin: 0px ; margin-top: 4px ; text-align: center&quot;&gt;&lt;b&gt;Employee&lt;/b&gt;&lt;/p&gt;&lt;hr size=&quot;1&quot;&gt;&lt;p style=&quot;margin: 0px ; margin-left: 4px&quot;&gt;Name：Inessa&lt;/p&gt;" style="verticalAlign=top;align=left;overflow=fill;fontSize=12;fontFamily=Helvetica;html=1;shadow=0;labelBackgroundColor=none;sketch=1;fillColor=#dae8fc;strokeColor=#6c8ebf;" vertex="1" parent="1">
          <mxGeometry x="98.5" y="1207" width="158" height="60" as="geometry" />
        </mxCell>
        <mxCell id="s5Ump-VfHsAbrPqj1HHM-111" value="&lt;p style=&quot;margin: 0px ; margin-top: 4px ; text-align: center&quot;&gt;&lt;b&gt;Department&lt;/b&gt;&lt;/p&gt;&lt;hr size=&quot;1&quot;&gt;&lt;p style=&quot;margin: 0px ; margin-left: 4px&quot;&gt;Name：Sales&lt;/p&gt;" style="verticalAlign=top;align=left;overflow=fill;fontSize=12;fontFamily=Helvetica;html=1;shadow=0;labelBackgroundColor=none;sketch=1;fillColor=#d5e8d4;strokeColor=#82b366;" vertex="1" parent="1">
          <mxGeometry x="-319" y="1517" width="158" height="60" as="geometry" />
        </mxCell>
        <mxCell id="s5Ump-VfHsAbrPqj1HHM-112" value="&lt;p style=&quot;margin: 0px ; margin-top: 4px ; text-align: center&quot;&gt;&lt;b&gt;Department&lt;/b&gt;&lt;/p&gt;&lt;hr size=&quot;1&quot;&gt;&lt;p style=&quot;margin: 0px ; margin-left: 4px&quot;&gt;Name：Marketing&lt;/p&gt;" style="verticalAlign=top;align=left;overflow=fill;fontSize=12;fontFamily=Helvetica;html=1;shadow=0;labelBackgroundColor=none;sketch=1;fillColor=#d5e8d4;strokeColor=#82b366;" vertex="1" parent="1">
          <mxGeometry x="-55" y="1514" width="158" height="60" as="geometry" />
        </mxCell>
        <mxCell id="s5Ump-VfHsAbrPqj1HHM-113" value="&lt;p style=&quot;margin: 0px ; margin-top: 4px ; text-align: center&quot;&gt;&lt;b&gt;Department&lt;/b&gt;&lt;/p&gt;&lt;hr size=&quot;1&quot;&gt;&lt;p style=&quot;margin: 0px ; margin-left: 4px&quot;&gt;Name：Manufacturing&lt;/p&gt;" style="verticalAlign=top;align=left;overflow=fill;fontSize=12;fontFamily=Helvetica;html=1;shadow=0;labelBackgroundColor=none;sketch=1;fillColor=#d5e8d4;strokeColor=#82b366;" vertex="1" parent="1">
          <mxGeometry x="211" y="1326" width="158" height="60" as="geometry" />
        </mxCell>
        <mxCell id="s5Ump-VfHsAbrPqj1HHM-114" value="&lt;p style=&quot;margin: 0px ; margin-top: 4px ; text-align: center&quot;&gt;&lt;b&gt;Employee&lt;/b&gt;&lt;/p&gt;&lt;hr size=&quot;1&quot;&gt;&lt;p style=&quot;margin: 0px ; margin-left: 4px&quot;&gt;Name：Max&lt;/p&gt;" style="verticalAlign=top;align=left;overflow=fill;fontSize=12;fontFamily=Helvetica;html=1;shadow=0;labelBackgroundColor=none;sketch=1;fillColor=#dae8fc;strokeColor=#6c8ebf;" vertex="1" parent="1">
          <mxGeometry x="-262" y="1390" width="158" height="60" as="geometry" />
        </mxCell>
        <mxCell id="s5Ump-VfHsAbrPqj1HHM-115" value="&lt;p style=&quot;margin: 0px ; margin-top: 4px ; text-align: center&quot;&gt;&lt;b&gt;Employee&lt;/b&gt;&lt;/p&gt;&lt;hr size=&quot;1&quot;&gt;&lt;p style=&quot;margin: 0px ; margin-left: 4px&quot;&gt;Name：John&lt;/p&gt;" style="verticalAlign=top;align=left;overflow=fill;fontSize=12;fontFamily=Helvetica;html=1;shadow=0;labelBackgroundColor=none;sketch=1;fillColor=#dae8fc;strokeColor=#6c8ebf;" vertex="1" parent="1">
          <mxGeometry x="59" y="1402" width="158" height="60" as="geometry" />
        </mxCell>
        <mxCell id="s5Ump-VfHsAbrPqj1HHM-116" value="" style="endArrow=classic;html=1;shadow=0;fontSize=16;exitX=0.446;exitY=1.033;exitDx=0;exitDy=0;exitPerimeter=0;entryX=0.25;entryY=0;entryDx=0;entryDy=0;sketch=1;" edge="1" parent="1" source="s5Ump-VfHsAbrPqj1HHM-110" target="s5Ump-VfHsAbrPqj1HHM-113">
          <mxGeometry width="50" height="50" relative="1" as="geometry">
            <mxPoint x="146" y="1355" as="sourcePoint" />
            <mxPoint x="196" y="1305" as="targetPoint" />
          </mxGeometry>
        </mxCell>
        <mxCell id="s5Ump-VfHsAbrPqj1HHM-117" value="" style="endArrow=classic;html=1;shadow=0;fontSize=16;exitX=0;exitY=0.5;exitDx=0;exitDy=0;entryX=1;entryY=0.533;entryDx=0;entryDy=0;sketch=1;entryPerimeter=0;" edge="1" parent="1" source="s5Ump-VfHsAbrPqj1HHM-110" target="s5Ump-VfHsAbrPqj1HHM-107">
          <mxGeometry width="50" height="50" relative="1" as="geometry">
            <mxPoint x="178.96800000000007" y="1278.98" as="sourcePoint" />
            <mxPoint x="260.5" y="1336" as="targetPoint" />
          </mxGeometry>
        </mxCell>
        <mxCell id="s5Ump-VfHsAbrPqj1HHM-118" value="Reports to" style="edgeLabel;html=1;align=center;verticalAlign=middle;resizable=0;points=[];fontSize=16;" vertex="1" connectable="0" parent="s5Ump-VfHsAbrPqj1HHM-117">
          <mxGeometry x="0.1948" y="-4" relative="1" as="geometry">
            <mxPoint as="offset" />
          </mxGeometry>
        </mxCell>
        <mxCell id="s5Ump-VfHsAbrPqj1HHM-119" value="Works in" style="text;html=1;align=center;verticalAlign=middle;resizable=0;points=[];autosize=1;strokeColor=none;fontSize=16;" vertex="1" parent="1">
          <mxGeometry x="177" y="1282" width="72" height="23" as="geometry" />
        </mxCell>
        <mxCell id="s5Ump-VfHsAbrPqj1HHM-120" value="" style="endArrow=classic;html=1;shadow=0;fontSize=16;exitX=0.5;exitY=0;exitDx=0;exitDy=0;sketch=1;" edge="1" parent="1" source="s5Ump-VfHsAbrPqj1HHM-109">
          <mxGeometry width="50" height="50" relative="1" as="geometry">
            <mxPoint x="-102" y="1260" as="sourcePoint" />
            <mxPoint x="-96" y="1176" as="targetPoint" />
          </mxGeometry>
        </mxCell>
        <mxCell id="s5Ump-VfHsAbrPqj1HHM-121" value="Reports to" style="text;html=1;align=center;verticalAlign=middle;resizable=0;points=[];autosize=1;strokeColor=none;fontSize=16;labelBackgroundColor=#ffffff;" vertex="1" parent="1">
          <mxGeometry x="-95" y="1238" width="84" height="23" as="geometry" />
        </mxCell>
        <mxCell id="s5Ump-VfHsAbrPqj1HHM-122" value="" style="endArrow=classic;html=1;shadow=0;fontSize=16;entryX=0.25;entryY=1;entryDx=0;entryDy=0;exitX=0.443;exitY=-0.033;exitDx=0;exitDy=0;exitPerimeter=0;" edge="1" parent="1" source="s5Ump-VfHsAbrPqj1HHM-114" target="s5Ump-VfHsAbrPqj1HHM-107">
          <mxGeometry width="50" height="50" relative="1" as="geometry">
            <mxPoint x="146" y="1355" as="sourcePoint" />
            <mxPoint x="196" y="1305" as="targetPoint" />
          </mxGeometry>
        </mxCell>
        <mxCell id="s5Ump-VfHsAbrPqj1HHM-123" value="Reports to" style="edgeLabel;html=1;align=center;verticalAlign=middle;resizable=0;points=[];fontSize=16;" vertex="1" connectable="0" parent="s5Ump-VfHsAbrPqj1HHM-122">
          <mxGeometry x="-0.1722" y="-4" relative="1" as="geometry">
            <mxPoint x="-3" y="24" as="offset" />
          </mxGeometry>
        </mxCell>
        <mxCell id="s5Ump-VfHsAbrPqj1HHM-124" value="" style="endArrow=classic;html=1;shadow=0;fontSize=16;exitX=0.184;exitY=1.017;exitDx=0;exitDy=0;exitPerimeter=0;entryX=0.703;entryY=-0.017;entryDx=0;entryDy=0;entryPerimeter=0;sketch=1;" edge="1" parent="1" source="s5Ump-VfHsAbrPqj1HHM-107" target="s5Ump-VfHsAbrPqj1HHM-108">
          <mxGeometry width="50" height="50" relative="1" as="geometry">
            <mxPoint x="-352" y="1194" as="sourcePoint" />
            <mxPoint x="-302" y="1144" as="targetPoint" />
          </mxGeometry>
        </mxCell>
        <mxCell id="s5Ump-VfHsAbrPqj1HHM-125" value="Works in" style="edgeLabel;html=1;align=center;verticalAlign=middle;resizable=0;points=[];fontSize=16;" vertex="1" connectable="0" parent="s5Ump-VfHsAbrPqj1HHM-124">
          <mxGeometry x="0.2684" y="1" relative="1" as="geometry">
            <mxPoint x="8" y="-7" as="offset" />
          </mxGeometry>
        </mxCell>
        <mxCell id="s5Ump-VfHsAbrPqj1HHM-126" value="" style="endArrow=classic;html=1;shadow=0;fontSize=16;exitX=0.5;exitY=1;exitDx=0;exitDy=0;" edge="1" parent="1" source="s5Ump-VfHsAbrPqj1HHM-114">
          <mxGeometry width="50" height="50" relative="1" as="geometry">
            <mxPoint x="-380" y="1475" as="sourcePoint" />
            <mxPoint x="-240" y="1516" as="targetPoint" />
          </mxGeometry>
        </mxCell>
        <mxCell id="s5Ump-VfHsAbrPqj1HHM-127" value="Works in" style="edgeLabel;html=1;align=center;verticalAlign=middle;resizable=0;points=[];fontSize=16;" vertex="1" connectable="0" parent="s5Ump-VfHsAbrPqj1HHM-126">
          <mxGeometry x="0.3633" y="-2" relative="1" as="geometry">
            <mxPoint x="6" y="-10" as="offset" />
          </mxGeometry>
        </mxCell>
        <mxCell id="s5Ump-VfHsAbrPqj1HHM-128" value="" style="endArrow=classic;html=1;shadow=0;fontSize=16;exitX=0.5;exitY=1;exitDx=0;exitDy=0;entryX=0.25;entryY=0;entryDx=0;entryDy=0;" edge="1" parent="1" source="s5Ump-VfHsAbrPqj1HHM-109" target="s5Ump-VfHsAbrPqj1HHM-112">
          <mxGeometry width="50" height="50" relative="1" as="geometry">
            <mxPoint x="-35" y="1449" as="sourcePoint" />
            <mxPoint x="15" y="1399" as="targetPoint" />
          </mxGeometry>
        </mxCell>
        <mxCell id="s5Ump-VfHsAbrPqj1HHM-129" value="Works in" style="edgeLabel;html=1;align=center;verticalAlign=middle;resizable=0;points=[];fontSize=16;" vertex="1" connectable="0" parent="s5Ump-VfHsAbrPqj1HHM-128">
          <mxGeometry x="-0.289" y="-3" relative="1" as="geometry">
            <mxPoint as="offset" />
          </mxGeometry>
        </mxCell>
        <mxCell id="s5Ump-VfHsAbrPqj1HHM-130" value="" style="endArrow=classic;html=1;shadow=0;fontSize=16;entryX=0.665;entryY=1;entryDx=0;entryDy=0;entryPerimeter=0;exitX=0.5;exitY=0;exitDx=0;exitDy=0;" edge="1" parent="1" source="s5Ump-VfHsAbrPqj1HHM-115" target="s5Ump-VfHsAbrPqj1HHM-109">
          <mxGeometry width="50" height="50" relative="1" as="geometry">
            <mxPoint x="250" y="1549" as="sourcePoint" />
            <mxPoint x="300" y="1499" as="targetPoint" />
          </mxGeometry>
        </mxCell>
        <mxCell id="s5Ump-VfHsAbrPqj1HHM-131" value="Reports to" style="edgeLabel;html=1;align=center;verticalAlign=middle;resizable=0;points=[];fontSize=16;" vertex="1" connectable="0" parent="s5Ump-VfHsAbrPqj1HHM-130">
          <mxGeometry x="-0.239" y="2" relative="1" as="geometry">
            <mxPoint as="offset" />
          </mxGeometry>
        </mxCell>
        <mxCell id="s5Ump-VfHsAbrPqj1HHM-132" value="" style="endArrow=classic;html=1;shadow=0;fontSize=16;exitX=0.5;exitY=1;exitDx=0;exitDy=0;entryX=0.5;entryY=0;entryDx=0;entryDy=0;" edge="1" parent="1" source="s5Ump-VfHsAbrPqj1HHM-115" target="s5Ump-VfHsAbrPqj1HHM-112">
          <mxGeometry width="50" height="50" relative="1" as="geometry">
            <mxPoint x="251" y="1547" as="sourcePoint" />
            <mxPoint x="301" y="1497" as="targetPoint" />
          </mxGeometry>
        </mxCell>
        <mxCell id="s5Ump-VfHsAbrPqj1HHM-133" value="Works in" style="edgeLabel;html=1;align=center;verticalAlign=middle;resizable=0;points=[];fontSize=16;" vertex="1" connectable="0" parent="s5Ump-VfHsAbrPqj1HHM-132">
          <mxGeometry x="-0.3078" y="1" relative="1" as="geometry">
            <mxPoint as="offset" />
          </mxGeometry>
        </mxCell>
        <mxCell id="s5Ump-VfHsAbrPqj1HHM-134" value="" style="shape=table;html=1;whiteSpace=wrap;startSize=0;container=1;collapsible=0;childLayout=tableLayout;shadow=0;labelBackgroundColor=#ffffff;sketch=1;fontSize=16;align=left;" vertex="1" parent="1">
          <mxGeometry x="597.25" y="1219" width="398.75" height="176" as="geometry" />
        </mxCell>
        <mxCell id="s5Ump-VfHsAbrPqj1HHM-135" value="" style="shape=partialRectangle;html=1;whiteSpace=wrap;collapsible=0;dropTarget=0;pointerEvents=0;fillColor=none;top=0;left=0;bottom=0;right=0;points=[[0,0.5],[1,0.5]];portConstraint=eastwest;" vertex="1" parent="s5Ump-VfHsAbrPqj1HHM-134">
          <mxGeometry width="398.75" height="44" as="geometry" />
        </mxCell>
        <mxCell id="s5Ump-VfHsAbrPqj1HHM-136" value="title" style="shape=partialRectangle;html=1;whiteSpace=wrap;connectable=0;fillColor=#dae8fc;top=0;left=0;bottom=0;right=0;overflow=hidden;fontStyle=1;strokeColor=#6c8ebf;sketch=1;fontSize=15;" vertex="1" parent="s5Ump-VfHsAbrPqj1HHM-135">
          <mxGeometry width="87" height="44" as="geometry" />
        </mxCell>
        <mxCell id="s5Ump-VfHsAbrPqj1HHM-137" value="author" style="shape=partialRectangle;html=1;whiteSpace=wrap;connectable=0;fillColor=#dae8fc;top=0;left=0;bottom=0;right=0;overflow=hidden;fontStyle=1;strokeColor=#6c8ebf;sketch=1;fontSize=15;" vertex="1" parent="s5Ump-VfHsAbrPqj1HHM-135">
          <mxGeometry x="87" width="105" height="44" as="geometry" />
        </mxCell>
        <mxCell id="s5Ump-VfHsAbrPqj1HHM-138" value="create_time" style="shape=partialRectangle;html=1;whiteSpace=wrap;connectable=0;fillColor=#dae8fc;top=0;left=0;bottom=0;right=0;overflow=hidden;fontStyle=1;strokeColor=#6c8ebf;sketch=1;fontSize=15;" vertex="1" parent="s5Ump-VfHsAbrPqj1HHM-135">
          <mxGeometry x="192" width="126" height="44" as="geometry" />
        </mxCell>
        <mxCell id="s5Ump-VfHsAbrPqj1HHM-151" value="like_num" style="shape=partialRectangle;html=1;whiteSpace=wrap;connectable=0;fillColor=#dae8fc;top=0;left=0;bottom=0;right=0;overflow=hidden;fontStyle=1;strokeColor=#6c8ebf;sketch=1;fontSize=15;" vertex="1" parent="s5Ump-VfHsAbrPqj1HHM-135">
          <mxGeometry x="318" width="81" height="44" as="geometry" />
        </mxCell>
        <mxCell id="s5Ump-VfHsAbrPqj1HHM-139" value="" style="shape=partialRectangle;html=1;whiteSpace=wrap;collapsible=0;dropTarget=0;pointerEvents=0;fillColor=none;top=0;left=0;bottom=0;right=0;points=[[0,0.5],[1,0.5]];portConstraint=eastwest;" vertex="1" parent="s5Ump-VfHsAbrPqj1HHM-134">
          <mxGeometry y="44" width="398.75" height="44" as="geometry" />
        </mxCell>
        <mxCell id="s5Ump-VfHsAbrPqj1HHM-140" value="Hbase" style="shape=partialRectangle;html=1;whiteSpace=wrap;connectable=0;fillColor=none;top=0;left=0;bottom=0;right=0;overflow=hidden;" vertex="1" parent="s5Ump-VfHsAbrPqj1HHM-139">
          <mxGeometry width="87" height="44" as="geometry" />
        </mxCell>
        <mxCell id="s5Ump-VfHsAbrPqj1HHM-141" value="Mic" style="shape=partialRectangle;html=1;whiteSpace=wrap;connectable=0;fillColor=none;top=0;left=0;bottom=0;right=0;overflow=hidden;" vertex="1" parent="s5Ump-VfHsAbrPqj1HHM-139">
          <mxGeometry x="87" width="105" height="44" as="geometry" />
        </mxCell>
        <mxCell id="s5Ump-VfHsAbrPqj1HHM-142" value="06-01" style="shape=partialRectangle;html=1;whiteSpace=wrap;connectable=0;fillColor=none;top=0;left=0;bottom=0;right=0;overflow=hidden;" vertex="1" parent="s5Ump-VfHsAbrPqj1HHM-139">
          <mxGeometry x="192" width="126" height="44" as="geometry" />
        </mxCell>
        <mxCell id="s5Ump-VfHsAbrPqj1HHM-152" value="100" style="shape=partialRectangle;html=1;whiteSpace=wrap;connectable=0;fillColor=none;top=0;left=0;bottom=0;right=0;overflow=hidden;" vertex="1" parent="s5Ump-VfHsAbrPqj1HHM-139">
          <mxGeometry x="318" width="81" height="44" as="geometry" />
        </mxCell>
        <mxCell id="s5Ump-VfHsAbrPqj1HHM-143" value="" style="shape=partialRectangle;html=1;whiteSpace=wrap;collapsible=0;dropTarget=0;pointerEvents=0;fillColor=none;top=0;left=0;bottom=0;right=0;points=[[0,0.5],[1,0.5]];portConstraint=eastwest;" vertex="1" parent="s5Ump-VfHsAbrPqj1HHM-134">
          <mxGeometry y="88" width="398.75" height="44" as="geometry" />
        </mxCell>
        <mxCell id="s5Ump-VfHsAbrPqj1HHM-144" value="Mysql" style="shape=partialRectangle;html=1;whiteSpace=wrap;connectable=0;fillColor=none;top=0;left=0;bottom=0;right=0;overflow=hidden;" vertex="1" parent="s5Ump-VfHsAbrPqj1HHM-143">
          <mxGeometry width="87" height="44" as="geometry" />
        </mxCell>
        <mxCell id="s5Ump-VfHsAbrPqj1HHM-145" value="Dylan" style="shape=partialRectangle;html=1;whiteSpace=wrap;connectable=0;fillColor=none;top=0;left=0;bottom=0;right=0;overflow=hidden;" vertex="1" parent="s5Ump-VfHsAbrPqj1HHM-143">
          <mxGeometry x="87" width="105" height="44" as="geometry" />
        </mxCell>
        <mxCell id="s5Ump-VfHsAbrPqj1HHM-146" value="07-01" style="shape=partialRectangle;html=1;whiteSpace=wrap;connectable=0;fillColor=none;top=0;left=0;bottom=0;right=0;overflow=hidden;" vertex="1" parent="s5Ump-VfHsAbrPqj1HHM-143">
          <mxGeometry x="192" width="126" height="44" as="geometry" />
        </mxCell>
        <mxCell id="s5Ump-VfHsAbrPqj1HHM-153" value="65" style="shape=partialRectangle;html=1;whiteSpace=wrap;connectable=0;fillColor=none;top=0;left=0;bottom=0;right=0;overflow=hidden;" vertex="1" parent="s5Ump-VfHsAbrPqj1HHM-143">
          <mxGeometry x="318" width="81" height="44" as="geometry" />
        </mxCell>
        <mxCell id="s5Ump-VfHsAbrPqj1HHM-154" value="" style="shape=partialRectangle;html=1;whiteSpace=wrap;collapsible=0;dropTarget=0;pointerEvents=0;fillColor=none;top=0;left=0;bottom=0;right=0;points=[[0,0.5],[1,0.5]];portConstraint=eastwest;" vertex="1" parent="s5Ump-VfHsAbrPqj1HHM-134">
          <mxGeometry y="132" width="398.75" height="44" as="geometry" />
        </mxCell>
        <mxCell id="s5Ump-VfHsAbrPqj1HHM-155" value="Apache" style="shape=partialRectangle;html=1;whiteSpace=wrap;connectable=0;fillColor=none;top=0;left=0;bottom=0;right=0;overflow=hidden;" vertex="1" parent="s5Ump-VfHsAbrPqj1HHM-154">
          <mxGeometry width="87" height="44" as="geometry" />
        </mxCell>
        <mxCell id="s5Ump-VfHsAbrPqj1HHM-156" value="Jone" style="shape=partialRectangle;html=1;whiteSpace=wrap;connectable=0;fillColor=none;top=0;left=0;bottom=0;right=0;overflow=hidden;" vertex="1" parent="s5Ump-VfHsAbrPqj1HHM-154">
          <mxGeometry x="87" width="105" height="44" as="geometry" />
        </mxCell>
        <mxCell id="s5Ump-VfHsAbrPqj1HHM-157" value="07-02" style="shape=partialRectangle;html=1;whiteSpace=wrap;connectable=0;fillColor=none;top=0;left=0;bottom=0;right=0;overflow=hidden;" vertex="1" parent="s5Ump-VfHsAbrPqj1HHM-154">
          <mxGeometry x="192" width="126" height="44" as="geometry" />
        </mxCell>
        <mxCell id="s5Ump-VfHsAbrPqj1HHM-158" value="89" style="shape=partialRectangle;html=1;whiteSpace=wrap;connectable=0;fillColor=none;top=0;left=0;bottom=0;right=0;overflow=hidden;" vertex="1" parent="s5Ump-VfHsAbrPqj1HHM-154">
          <mxGeometry x="318" width="81" height="44" as="geometry" />
        </mxCell>
        <mxCell id="s5Ump-VfHsAbrPqj1HHM-159" value="" style="shape=table;html=1;whiteSpace=wrap;startSize=0;container=1;collapsible=0;childLayout=tableLayout;shadow=0;labelBackgroundColor=#ffffff;sketch=1;fontSize=15;align=left;" vertex="1" parent="1">
          <mxGeometry x="477" y="1467" width="702" height="37" as="geometry" />
        </mxCell>
        <mxCell id="s5Ump-VfHsAbrPqj1HHM-160" value="" style="shape=partialRectangle;html=1;whiteSpace=wrap;collapsible=0;dropTarget=0;pointerEvents=0;fillColor=none;top=0;left=0;bottom=0;right=0;points=[[0,0.5],[1,0.5]];portConstraint=eastwest;" vertex="1" parent="s5Ump-VfHsAbrPqj1HHM-159">
          <mxGeometry width="702" height="37" as="geometry" />
        </mxCell>
        <mxCell id="s5Ump-VfHsAbrPqj1HHM-161" value="Hbase|Mic|06-01|100" style="shape=partialRectangle;html=1;whiteSpace=wrap;connectable=0;fillColor=none;top=0;left=0;bottom=0;right=0;overflow=hidden;fontSize=15;" vertex="1" parent="s5Ump-VfHsAbrPqj1HHM-160">
          <mxGeometry width="191" height="37" as="geometry" />
        </mxCell>
        <mxCell id="s5Ump-VfHsAbrPqj1HHM-162" value="Mysql|Dylan|07-01|65" style="shape=partialRectangle;html=1;whiteSpace=wrap;connectable=0;fillColor=none;top=0;left=0;bottom=0;right=0;overflow=hidden;fontSize=15;" vertex="1" parent="s5Ump-VfHsAbrPqj1HHM-160">
          <mxGeometry x="191" width="277" height="37" as="geometry" />
        </mxCell>
        <mxCell id="s5Ump-VfHsAbrPqj1HHM-163" value="Apache|Jone|07-02|89" style="shape=partialRectangle;html=1;whiteSpace=wrap;connectable=0;fillColor=none;top=0;left=0;bottom=0;right=0;overflow=hidden;fontSize=15;" vertex="1" parent="s5Ump-VfHsAbrPqj1HHM-160">
          <mxGeometry x="468" width="234" height="37" as="geometry" />
        </mxCell>
        <mxCell id="s5Ump-VfHsAbrPqj1HHM-172" value="" style="shape=flexArrow;endArrow=classic;html=1;shadow=0;fontSize=15;sketch=1;" edge="1" parent="1">
          <mxGeometry width="50" height="50" relative="1" as="geometry">
            <mxPoint x="777" y="1399" as="sourcePoint" />
            <mxPoint x="777" y="1463" as="targetPoint" />
          </mxGeometry>
        </mxCell>
        <mxCell id="s5Ump-VfHsAbrPqj1HHM-173" value="行存储的数据以下面这种方式存储在磁盘上" style="text;html=1;strokeColor=none;fillColor=none;align=center;verticalAlign=middle;whiteSpace=wrap;rounded=0;shadow=0;labelBackgroundColor=#ffffff;sketch=1;fontSize=15;" vertex="1" parent="1">
          <mxGeometry x="792" y="1416" width="320" height="25" as="geometry" />
        </mxCell>
        <mxCell id="s5Ump-VfHsAbrPqj1HHM-175" value="" style="shape=table;html=1;whiteSpace=wrap;startSize=0;container=1;collapsible=0;childLayout=tableLayout;shadow=0;labelBackgroundColor=#ffffff;sketch=1;fontSize=15;align=left;" vertex="1" parent="1">
          <mxGeometry x="1251" y="177" width="702" height="37" as="geometry" />
        </mxCell>
        <mxCell id="s5Ump-VfHsAbrPqj1HHM-176" value="" style="shape=partialRectangle;html=1;whiteSpace=wrap;collapsible=0;dropTarget=0;pointerEvents=0;fillColor=none;top=0;left=0;bottom=0;right=0;points=[[0,0.5],[1,0.5]];portConstraint=eastwest;" vertex="1" parent="s5Ump-VfHsAbrPqj1HHM-175">
          <mxGeometry width="702" height="37" as="geometry" />
        </mxCell>
        <mxCell id="s5Ump-VfHsAbrPqj1HHM-177" value="Hbase|Mic|06-01|100" style="shape=partialRectangle;html=1;whiteSpace=wrap;connectable=0;fillColor=#d5e8d4;top=0;left=0;bottom=0;right=0;overflow=hidden;fontSize=15;strokeColor=#82b366;sketch=1;" vertex="1" parent="s5Ump-VfHsAbrPqj1HHM-176">
          <mxGeometry width="191" height="37" as="geometry" />
        </mxCell>
        <mxCell id="s5Ump-VfHsAbrPqj1HHM-178" value="Mysql|Dylan|07-01|65" style="shape=partialRectangle;html=1;whiteSpace=wrap;connectable=0;fillColor=#fff2cc;top=0;left=0;bottom=0;right=0;overflow=hidden;fontSize=15;strokeColor=#d6b656;sketch=1;" vertex="1" parent="s5Ump-VfHsAbrPqj1HHM-176">
          <mxGeometry x="191" width="277" height="37" as="geometry" />
        </mxCell>
        <mxCell id="s5Ump-VfHsAbrPqj1HHM-179" value="Apache|Jone|07-02|89" style="shape=partialRectangle;html=1;whiteSpace=wrap;connectable=0;fillColor=#f8cecc;top=0;left=0;bottom=0;right=0;overflow=hidden;fontSize=15;strokeColor=#b85450;sketch=1;" vertex="1" parent="s5Ump-VfHsAbrPqj1HHM-176">
          <mxGeometry x="468" width="234" height="37" as="geometry" />
        </mxCell>
        <mxCell id="s5Ump-VfHsAbrPqj1HHM-180" value="" style="shape=flexArrow;endArrow=classic;html=1;shadow=0;fontSize=15;sketch=1;entryX=0.411;entryY=0;entryDx=0;entryDy=0;entryPerimeter=0;" edge="1" parent="1" target="s5Ump-VfHsAbrPqj1HHM-183">
          <mxGeometry width="50" height="50" relative="1" as="geometry">
            <mxPoint x="1586" y="214" as="sourcePoint" />
            <mxPoint x="1586" y="285" as="targetPoint" />
          </mxGeometry>
        </mxCell>
        <mxCell id="s5Ump-VfHsAbrPqj1HHM-182" value="" style="shape=table;html=1;whiteSpace=wrap;startSize=0;container=1;collapsible=0;childLayout=tableLayout;shadow=0;labelBackgroundColor=#ffffff;sketch=1;fontSize=15;align=left;fillColor=#d5e8d4;strokeColor=#82b366;" vertex="1" parent="1">
          <mxGeometry x="1489" y="294" width="236" height="36" as="geometry" />
        </mxCell>
        <mxCell id="s5Ump-VfHsAbrPqj1HHM-183" value="" style="shape=partialRectangle;html=1;whiteSpace=wrap;collapsible=0;dropTarget=0;pointerEvents=0;fillColor=none;top=0;left=0;bottom=0;right=0;points=[[0,0.5],[1,0.5]];portConstraint=eastwest;" vertex="1" parent="s5Ump-VfHsAbrPqj1HHM-182">
          <mxGeometry width="236" height="36" as="geometry" />
        </mxCell>
        <mxCell id="s5Ump-VfHsAbrPqj1HHM-184" value="Hbase|Mic|06-01|&lt;b&gt;&lt;font color=&quot;#ea6b66&quot; style=&quot;font-size: 17px&quot;&gt;100&lt;/font&gt;&lt;/b&gt;" style="shape=partialRectangle;html=1;whiteSpace=wrap;connectable=0;fillColor=none;top=0;left=0;bottom=0;right=0;overflow=hidden;fontSize=15;" vertex="1" parent="s5Ump-VfHsAbrPqj1HHM-183">
          <mxGeometry width="236" height="36" as="geometry" />
        </mxCell>
        <mxCell id="s5Ump-VfHsAbrPqj1HHM-187" value="" style="shape=table;html=1;whiteSpace=wrap;startSize=0;container=1;collapsible=0;childLayout=tableLayout;shadow=0;labelBackgroundColor=#ffffff;sketch=1;fontSize=15;align=left;fillColor=#ffe6cc;strokeColor=#d79b00;" vertex="1" parent="1">
          <mxGeometry x="1489" y="351" width="236" height="37" as="geometry" />
        </mxCell>
        <mxCell id="s5Ump-VfHsAbrPqj1HHM-188" value="" style="shape=partialRectangle;html=1;whiteSpace=wrap;collapsible=0;dropTarget=0;pointerEvents=0;fillColor=none;top=0;left=0;bottom=0;right=0;points=[[0,0.5],[1,0.5]];portConstraint=eastwest;" vertex="1" parent="s5Ump-VfHsAbrPqj1HHM-187">
          <mxGeometry width="236" height="37" as="geometry" />
        </mxCell>
        <mxCell id="s5Ump-VfHsAbrPqj1HHM-190" value="Mysql|Dylan|07-01|&lt;font color=&quot;#ea6b66&quot; style=&quot;font-size: 17px&quot;&gt;&lt;b&gt;65&lt;/b&gt;&lt;/font&gt;" style="shape=partialRectangle;html=1;whiteSpace=wrap;connectable=0;fillColor=#fff2cc;top=0;left=0;bottom=0;right=0;overflow=hidden;fontSize=15;strokeColor=#d6b656;sketch=1;" vertex="1" parent="s5Ump-VfHsAbrPqj1HHM-188">
          <mxGeometry width="236" height="37" as="geometry" />
        </mxCell>
        <mxCell id="s5Ump-VfHsAbrPqj1HHM-198" value="" style="endArrow=classic;html=1;shadow=0;fontSize=15;sketch=1;" edge="1" parent="1" source="s5Ump-VfHsAbrPqj1HHM-183">
          <mxGeometry width="50" height="50" relative="1" as="geometry">
            <mxPoint x="1843" y="528" as="sourcePoint" />
            <mxPoint x="1845" y="403" as="targetPoint" />
          </mxGeometry>
        </mxCell>
        <mxCell id="s5Ump-VfHsAbrPqj1HHM-199" value="" style="endArrow=classic;html=1;shadow=0;fontSize=15;sketch=1;" edge="1" parent="1">
          <mxGeometry width="50" height="50" relative="1" as="geometry">
            <mxPoint x="1684" y="371" as="sourcePoint" />
            <mxPoint x="1840" y="405" as="targetPoint" />
          </mxGeometry>
        </mxCell>
        <mxCell id="s5Ump-VfHsAbrPqj1HHM-200" value="" style="endArrow=classic;html=1;shadow=0;fontSize=15;sketch=1;" edge="1" parent="1">
          <mxGeometry width="50" height="50" relative="1" as="geometry">
            <mxPoint x="1684" y="426" as="sourcePoint" />
            <mxPoint x="1841" y="410" as="targetPoint" />
          </mxGeometry>
        </mxCell>
        <mxCell id="s5Ump-VfHsAbrPqj1HHM-201" value="将like_num列做sum操作" style="rounded=0;whiteSpace=wrap;html=1;shadow=0;labelBackgroundColor=#ffffff;sketch=1;fontSize=15;align=left;fillColor=#e1d5e7;strokeColor=#9673a6;spacingLeft=11;" vertex="1" parent="1">
          <mxGeometry x="1845" y="379" width="190" height="49" as="geometry" />
        </mxCell>
        <mxCell id="s5Ump-VfHsAbrPqj1HHM-210" value="" style="shape=table;html=1;whiteSpace=wrap;startSize=0;container=1;collapsible=0;childLayout=tableLayout;shadow=1;labelBackgroundColor=#ffffff;sketch=1;fontSize=15;align=left;spacingTop=0;spacingBottom=-3;" vertex="1" parent="1">
          <mxGeometry x="1347" y="578" width="721.75" height="40" as="geometry" />
        </mxCell>
        <mxCell id="s5Ump-VfHsAbrPqj1HHM-211" value="" style="shape=partialRectangle;html=1;whiteSpace=wrap;collapsible=0;dropTarget=0;pointerEvents=0;fillColor=none;top=0;left=0;bottom=0;right=0;points=[[0,0.5],[1,0.5]];portConstraint=eastwest;" vertex="1" parent="s5Ump-VfHsAbrPqj1HHM-210">
          <mxGeometry width="721.75" height="40" as="geometry" />
        </mxCell>
        <mxCell id="s5Ump-VfHsAbrPqj1HHM-212" value="Hbase" style="shape=partialRectangle;html=1;whiteSpace=wrap;connectable=0;fillColor=#d5e8d4;top=0;left=0;bottom=0;right=0;overflow=hidden;strokeColor=#82b366;sketch=1;" vertex="1" parent="s5Ump-VfHsAbrPqj1HHM-211">
          <mxGeometry width="60" height="40" as="geometry" />
        </mxCell>
        <mxCell id="s5Ump-VfHsAbrPqj1HHM-213" value="Mysql" style="shape=partialRectangle;html=1;whiteSpace=wrap;connectable=0;fillColor=#ffe6cc;top=0;left=0;bottom=0;right=0;overflow=hidden;sketch=1;strokeColor=#d79b00;" vertex="1" parent="s5Ump-VfHsAbrPqj1HHM-211">
          <mxGeometry x="60" width="60" height="40" as="geometry" />
        </mxCell>
        <mxCell id="s5Ump-VfHsAbrPqj1HHM-223" value="Apache" style="shape=partialRectangle;html=1;whiteSpace=wrap;connectable=0;fillColor=#f8cecc;top=0;left=0;bottom=0;right=0;overflow=hidden;sketch=1;strokeColor=#b85450;" vertex="1" parent="s5Ump-VfHsAbrPqj1HHM-211">
          <mxGeometry x="120" width="60" height="40" as="geometry" />
        </mxCell>
        <mxCell id="s5Ump-VfHsAbrPqj1HHM-226" value="&lt;b&gt;....&lt;/b&gt;" style="shape=partialRectangle;html=1;whiteSpace=wrap;connectable=0;top=0;left=0;bottom=0;right=0;overflow=hidden;strokeColor=none;fillColor=none;strokeWidth=0;spacingBottom=4;sketch=1;" vertex="1" parent="s5Ump-VfHsAbrPqj1HHM-211">
          <mxGeometry x="180" width="31" height="40" as="geometry" />
        </mxCell>
        <mxCell id="s5Ump-VfHsAbrPqj1HHM-229" value="Mic" style="shape=partialRectangle;html=1;whiteSpace=wrap;connectable=0;fillColor=#d5e8d4;top=0;left=0;bottom=0;right=0;overflow=hidden;strokeColor=#82b366;sketch=1;" vertex="1" parent="s5Ump-VfHsAbrPqj1HHM-211">
          <mxGeometry x="211" width="45" height="40" as="geometry" />
        </mxCell>
        <mxCell id="s5Ump-VfHsAbrPqj1HHM-232" value="Dylan" style="shape=partialRectangle;html=1;whiteSpace=wrap;connectable=0;fillColor=#ffe6cc;top=0;left=0;bottom=0;right=0;overflow=hidden;sketch=1;strokeColor=#d79b00;" vertex="1" parent="s5Ump-VfHsAbrPqj1HHM-211">
          <mxGeometry x="256" width="53" height="40" as="geometry" />
        </mxCell>
        <mxCell id="s5Ump-VfHsAbrPqj1HHM-235" value="Jone" style="shape=partialRectangle;html=1;whiteSpace=wrap;connectable=0;fillColor=#f8cecc;top=0;left=0;bottom=0;right=0;overflow=hidden;sketch=1;strokeColor=#b85450;" vertex="1" parent="s5Ump-VfHsAbrPqj1HHM-211">
          <mxGeometry x="309" width="54" height="40" as="geometry" />
        </mxCell>
        <mxCell id="s5Ump-VfHsAbrPqj1HHM-238" value="&lt;b&gt;....&lt;/b&gt;" style="shape=partialRectangle;html=1;whiteSpace=wrap;connectable=0;fillColor=none;top=0;left=0;bottom=0;right=0;overflow=hidden;sketch=1;" vertex="1" parent="s5Ump-VfHsAbrPqj1HHM-211">
          <mxGeometry x="363" width="32" height="40" as="geometry" />
        </mxCell>
        <mxCell id="s5Ump-VfHsAbrPqj1HHM-241" value="06-01" style="shape=partialRectangle;html=1;whiteSpace=wrap;connectable=0;fillColor=#d5e8d4;top=0;left=0;bottom=0;right=0;overflow=hidden;strokeColor=#82b366;sketch=1;" vertex="1" parent="s5Ump-VfHsAbrPqj1HHM-211">
          <mxGeometry x="395" width="57" height="40" as="geometry" />
        </mxCell>
        <mxCell id="s5Ump-VfHsAbrPqj1HHM-244" value="07-01" style="shape=partialRectangle;html=1;whiteSpace=wrap;connectable=0;fillColor=#ffe6cc;top=0;left=0;bottom=0;right=0;overflow=hidden;sketch=1;strokeColor=#d79b00;" vertex="1" parent="s5Ump-VfHsAbrPqj1HHM-211">
          <mxGeometry x="452" width="46" height="40" as="geometry" />
        </mxCell>
        <mxCell id="s5Ump-VfHsAbrPqj1HHM-247" value="07-02" style="shape=partialRectangle;html=1;whiteSpace=wrap;connectable=0;fillColor=#f8cecc;top=0;left=0;bottom=0;right=0;overflow=hidden;sketch=1;strokeColor=#b85450;" vertex="1" parent="s5Ump-VfHsAbrPqj1HHM-211">
          <mxGeometry x="498" width="48" height="40" as="geometry" />
        </mxCell>
        <mxCell id="s5Ump-VfHsAbrPqj1HHM-250" value="&lt;b&gt;....&lt;/b&gt;" style="shape=partialRectangle;html=1;whiteSpace=wrap;connectable=0;fillColor=none;top=0;left=0;bottom=0;right=0;overflow=hidden;spacingBottom=3;sketch=1;" vertex="1" parent="s5Ump-VfHsAbrPqj1HHM-211">
          <mxGeometry x="546" width="44" height="40" as="geometry" />
        </mxCell>
        <mxCell id="s5Ump-VfHsAbrPqj1HHM-253" value="100" style="shape=partialRectangle;html=1;whiteSpace=wrap;connectable=0;fillColor=#d5e8d4;top=0;left=0;bottom=0;right=0;overflow=hidden;spacingBottom=3;strokeColor=#82b366;sketch=1;" vertex="1" parent="s5Ump-VfHsAbrPqj1HHM-211">
          <mxGeometry x="590" width="44" height="40" as="geometry" />
        </mxCell>
        <mxCell id="s5Ump-VfHsAbrPqj1HHM-254" value="65" style="shape=partialRectangle;html=1;whiteSpace=wrap;connectable=0;fillColor=#ffe6cc;top=0;left=0;bottom=0;right=0;overflow=hidden;spacingBottom=3;sketch=1;strokeColor=#d79b00;" vertex="1" parent="s5Ump-VfHsAbrPqj1HHM-211">
          <mxGeometry x="634" width="44" height="40" as="geometry" />
        </mxCell>
        <mxCell id="s5Ump-VfHsAbrPqj1HHM-255" value="89" style="shape=partialRectangle;html=1;whiteSpace=wrap;connectable=0;fillColor=#f8cecc;top=0;left=0;bottom=0;right=0;overflow=hidden;spacingBottom=3;sketch=1;strokeColor=#b85450;" vertex="1" parent="s5Ump-VfHsAbrPqj1HHM-211">
          <mxGeometry x="678" width="44" height="40" as="geometry" />
        </mxCell>
        <mxCell id="s5Ump-VfHsAbrPqj1HHM-289" value="用户表" style="whiteSpace=wrap;html=1;sketch=1;fontSize=18;align=center;labelBorderColor=none;glass=1;rounded=0;shadow=1;fillColor=#dae8fc;strokeColor=#6c8ebf;" vertex="1" parent="1">
          <mxGeometry x="1339" y="790" width="120" height="60" as="geometry" />
        </mxCell>
        <mxCell id="s5Ump-VfHsAbrPqj1HHM-290" value="文章表" style="whiteSpace=wrap;html=1;sketch=1;fontSize=18;align=center;labelBorderColor=none;glass=1;rounded=0;shadow=1;fillColor=#d5e8d4;strokeColor=#82b366;" vertex="1" parent="1">
          <mxGeometry x="1559" y="790" width="120" height="60" as="geometry" />
        </mxCell>
        <mxCell id="s5Ump-VfHsAbrPqj1HHM-291" value="文章评论表" style="whiteSpace=wrap;html=1;sketch=1;fontSize=18;align=center;labelBorderColor=none;glass=1;rounded=0;shadow=1;fillColor=#ffe6cc;strokeColor=#d79b00;" vertex="1" parent="1">
          <mxGeometry x="1449" y="916" width="120" height="60" as="geometry" />
        </mxCell>
        <mxCell id="s5Ump-VfHsAbrPqj1HHM-292" value="" style="endArrow=classic;html=1;shadow=0;fontSize=18;sketch=1;" edge="1" parent="1">
          <mxGeometry width="50" height="50" relative="1" as="geometry">
            <mxPoint x="1554" y="822" as="sourcePoint" />
            <mxPoint x="1463" y="822" as="targetPoint" />
          </mxGeometry>
        </mxCell>
        <mxCell id="s5Ump-VfHsAbrPqj1HHM-293" value="" style="endArrow=classic;html=1;shadow=0;fontSize=18;exitX=0.5;exitY=0;exitDx=0;exitDy=0;entryX=0.5;entryY=1;entryDx=0;entryDy=0;sketch=1;" edge="1" parent="1" source="s5Ump-VfHsAbrPqj1HHM-291" target="s5Ump-VfHsAbrPqj1HHM-290">
          <mxGeometry width="50" height="50" relative="1" as="geometry">
            <mxPoint x="1661" y="947" as="sourcePoint" />
            <mxPoint x="1711" y="897" as="targetPoint" />
          </mxGeometry>
        </mxCell>
        <mxCell id="s5Ump-VfHsAbrPqj1HHM-294" value="n" style="text;html=1;strokeColor=none;fillColor=none;align=center;verticalAlign=middle;whiteSpace=wrap;rounded=0;shadow=1;glass=1;labelBackgroundColor=#ffffff;sketch=1;fontSize=18;" vertex="1" parent="1">
          <mxGeometry x="1521" y="796" width="40" height="20" as="geometry" />
        </mxCell>
        <mxCell id="s5Ump-VfHsAbrPqj1HHM-295" value="1" style="text;html=1;strokeColor=none;fillColor=none;align=center;verticalAlign=middle;whiteSpace=wrap;rounded=0;shadow=1;glass=1;labelBackgroundColor=#ffffff;sketch=1;fontSize=18;" vertex="1" parent="1">
          <mxGeometry x="1453" y="796" width="40" height="20" as="geometry" />
        </mxCell>
        <mxCell id="s5Ump-VfHsAbrPqj1HHM-296" value="n" style="text;html=1;strokeColor=none;fillColor=none;align=center;verticalAlign=middle;whiteSpace=wrap;rounded=0;shadow=1;glass=1;labelBackgroundColor=#ffffff;sketch=1;fontSize=18;" vertex="1" parent="1">
          <mxGeometry x="1479" y="893" width="40" height="20" as="geometry" />
        </mxCell>
        <mxCell id="s5Ump-VfHsAbrPqj1HHM-297" value="1" style="text;html=1;strokeColor=none;fillColor=none;align=center;verticalAlign=middle;whiteSpace=wrap;rounded=0;shadow=1;glass=1;labelBackgroundColor=#ffffff;sketch=1;fontSize=18;" vertex="1" parent="1">
          <mxGeometry x="1541" y="856" width="40" height="20" as="geometry" />
        </mxCell>
        <mxCell id="s5Ump-VfHsAbrPqj1HHM-298" value="String(字符串)" style="rounded=0;whiteSpace=wrap;html=1;shadow=1;glass=1;labelBackgroundColor=#ffffff;sketch=1;fontSize=18;strokeColor=#000000;strokeWidth=1;fillColor=#ffffff;gradientColor=none;align=center;" vertex="1" parent="1">
          <mxGeometry x="1378.75" y="1150.5" width="214" height="60" as="geometry" />
        </mxCell>
        <mxCell id="s5Ump-VfHsAbrPqj1HHM-299" value="Hash(哈希表)" style="rounded=0;whiteSpace=wrap;html=1;shadow=1;glass=1;labelBackgroundColor=#ffffff;sketch=1;fontSize=18;strokeColor=#000000;strokeWidth=1;fillColor=#ffffff;gradientColor=none;align=center;" vertex="1" parent="1">
          <mxGeometry x="1616.75" y="1150.5" width="213" height="60" as="geometry" />
        </mxCell>
        <mxCell id="s5Ump-VfHsAbrPqj1HHM-300" value="List(有序且可重复集合)" style="rounded=0;whiteSpace=wrap;html=1;shadow=1;glass=1;labelBackgroundColor=#ffffff;sketch=1;fontSize=18;strokeColor=#000000;strokeWidth=1;fillColor=#ffffff;gradientColor=none;align=center;" vertex="1" parent="1">
          <mxGeometry x="1378.75" y="1243.5" width="210" height="60" as="geometry" />
        </mxCell>
        <mxCell id="s5Ump-VfHsAbrPqj1HHM-301" value="Set(无序且补课重复集合)" style="rounded=0;whiteSpace=wrap;html=1;shadow=1;glass=1;labelBackgroundColor=#ffffff;sketch=1;fontSize=18;strokeColor=#000000;strokeWidth=1;fillColor=#ffffff;gradientColor=none;align=center;" vertex="1" parent="1">
          <mxGeometry x="1616.75" y="1243.5" width="210" height="60" as="geometry" />
        </mxCell>
        <mxCell id="s5Ump-VfHsAbrPqj1HHM-302" value="zSet(有序且补课重复集合)" style="rounded=0;whiteSpace=wrap;html=1;shadow=1;glass=1;labelBackgroundColor=#ffffff;sketch=1;fontSize=18;strokeColor=#000000;strokeWidth=1;fillColor=#ffffff;gradientColor=none;align=center;" vertex="1" parent="1">
          <mxGeometry x="1378.75" y="1330.5" width="242" height="59" as="geometry" />
        </mxCell>
        <mxCell id="s5Ump-VfHsAbrPqj1HHM-303" value="Geospatial(地理位置计算)" style="rounded=0;whiteSpace=wrap;html=1;shadow=1;glass=1;labelBackgroundColor=#ffffff;sketch=1;fontSize=18;strokeColor=#000000;strokeWidth=1;fillColor=#ffffff;gradientColor=none;align=center;" vertex="1" parent="1">
          <mxGeometry x="1636.75" y="1329.5" width="210" height="60" as="geometry" />
        </mxCell>
        <mxCell id="s5Ump-VfHsAbrPqj1HHM-304" value="HyperLogLog(基数)" style="rounded=0;whiteSpace=wrap;html=1;shadow=1;glass=1;labelBackgroundColor=#ffffff;sketch=1;fontSize=18;strokeColor=#000000;strokeWidth=1;fillColor=#ffffff;gradientColor=none;align=center;" vertex="1" parent="1">
          <mxGeometry x="1854.75" y="1150.5" width="210" height="60" as="geometry" />
        </mxCell>
        <mxCell id="s5Ump-VfHsAbrPqj1HHM-305" value="Streams(流信息)" style="rounded=0;whiteSpace=wrap;html=1;shadow=1;glass=1;labelBackgroundColor=#ffffff;sketch=1;fontSize=18;strokeColor=#000000;strokeWidth=1;fillColor=#ffffff;gradientColor=none;align=center;" vertex="1" parent="1">
          <mxGeometry x="1854.75" y="1241.5" width="210" height="60" as="geometry" />
        </mxCell>
        <mxCell id="s5Ump-VfHsAbrPqj1HHM-306" value="Bit Arrays(位集合)" style="rounded=0;whiteSpace=wrap;html=1;shadow=1;glass=1;labelBackgroundColor=#ffffff;sketch=1;fontSize=18;strokeColor=#000000;strokeWidth=1;fillColor=#ffffff;gradientColor=none;align=center;" vertex="1" parent="1">
          <mxGeometry x="1858.75" y="1330" width="210" height="60" as="geometry" />
        </mxCell>
        <mxCell id="s5Ump-VfHsAbrPqj1HHM-307" value="String类型常用操作" style="rounded=0;whiteSpace=wrap;html=1;shadow=1;glass=1;labelBackgroundColor=#ffffff;sketch=1;fontSize=18;strokeColor=#000000;strokeWidth=1;fillColor=#ffffff;gradientColor=none;align=center;" vertex="1" parent="1">
          <mxGeometry x="2336" y="173" width="214" height="60" as="geometry" />
        </mxCell>
        <mxCell id="s5Ump-VfHsAbrPqj1HHM-311" value="" style="edgeStyle=orthogonalEdgeStyle;rounded=0;sketch=1;orthogonalLoop=1;jettySize=auto;html=1;shadow=0;fontSize=18;" edge="1" parent="1" source="s5Ump-VfHsAbrPqj1HHM-309" target="s5Ump-VfHsAbrPqj1HHM-310">
          <mxGeometry relative="1" as="geometry" />
        </mxCell>
        <mxCell id="s5Ump-VfHsAbrPqj1HHM-309" value="get/set" style="rounded=0;whiteSpace=wrap;html=1;shadow=1;glass=1;labelBackgroundColor=#ffffff;sketch=1;fontSize=18;strokeColor=#82b366;strokeWidth=1;fillColor=#d5e8d4;align=center;fontStyle=1" vertex="1" parent="1">
          <mxGeometry x="2622" y="56" width="82" height="57" as="geometry" />
        </mxCell>
        <mxCell id="s5Ump-VfHsAbrPqj1HHM-313" value="" style="edgeStyle=orthogonalEdgeStyle;rounded=0;sketch=1;orthogonalLoop=1;jettySize=auto;html=1;shadow=0;fontSize=18;entryX=0;entryY=0.5;entryDx=0;entryDy=0;" edge="1" parent="1" source="s5Ump-VfHsAbrPqj1HHM-310" target="s5Ump-VfHsAbrPqj1HHM-312">
          <mxGeometry relative="1" as="geometry" />
        </mxCell>
        <mxCell id="s5Ump-VfHsAbrPqj1HHM-310" value="获取/添加数据" style="whiteSpace=wrap;html=1;rounded=0;shadow=1;fontSize=18;fontStyle=1;strokeWidth=1;glass=1;labelBackgroundColor=#ffffff;sketch=1;" vertex="1" parent="1">
          <mxGeometry x="2765" y="54.5" width="169" height="61.5" as="geometry" />
        </mxCell>
        <mxCell id="s5Ump-VfHsAbrPqj1HHM-312" value="&lt;b&gt;set(k,v)&lt;/b&gt;&lt;br&gt;&amp;gt; set name mic" style="whiteSpace=wrap;html=1;rounded=0;shadow=1;fontSize=18;fontStyle=0;strokeWidth=1;glass=1;labelBackgroundColor=#ffffff;sketch=1;align=left;spacingLeft=11;" vertex="1" parent="1">
          <mxGeometry x="3027" y="-55" width="162" height="59" as="geometry" />
        </mxCell>
        <mxCell id="s5Ump-VfHsAbrPqj1HHM-314" value="&lt;b&gt;get key&lt;/b&gt;&lt;br&gt;&amp;gt; get name&lt;br&gt;&amp;gt; mic" style="whiteSpace=wrap;html=1;rounded=0;shadow=1;fontSize=18;fontStyle=0;strokeWidth=1;glass=1;labelBackgroundColor=#ffffff;sketch=1;align=left;spacingLeft=11;" vertex="1" parent="1">
          <mxGeometry x="3027" y="48.25" width="166" height="74" as="geometry" />
        </mxCell>
        <mxCell id="s5Ump-VfHsAbrPqj1HHM-315" value="" style="endArrow=classic;html=1;shadow=0;fontSize=18;exitX=1;exitY=0.5;exitDx=0;exitDy=0;sketch=1;entryX=0;entryY=0.75;entryDx=0;entryDy=0;edgeStyle=orthogonalEdgeStyle;" edge="1" parent="1" source="s5Ump-VfHsAbrPqj1HHM-310" target="s5Ump-VfHsAbrPqj1HHM-314">
          <mxGeometry width="50" height="50" relative="1" as="geometry">
            <mxPoint x="2998" y="224" as="sourcePoint" />
            <mxPoint x="3027" y="148" as="targetPoint" />
          </mxGeometry>
        </mxCell>
        <mxCell id="s5Ump-VfHsAbrPqj1HHM-321" value="" style="edgeStyle=orthogonalEdgeStyle;rounded=0;sketch=1;orthogonalLoop=1;jettySize=auto;html=1;shadow=0;fontSize=15;" edge="1" parent="1" source="s5Ump-VfHsAbrPqj1HHM-316" target="s5Ump-VfHsAbrPqj1HHM-318">
          <mxGeometry relative="1" as="geometry" />
        </mxCell>
        <mxCell id="s5Ump-VfHsAbrPqj1HHM-316" value="setNx" style="rounded=0;whiteSpace=wrap;html=1;shadow=1;glass=1;labelBackgroundColor=#ffffff;sketch=1;fontSize=18;strokeColor=#82b366;strokeWidth=1;fillColor=#d5e8d4;align=center;fontStyle=1" vertex="1" parent="1">
          <mxGeometry x="2622" y="179" width="82" height="57" as="geometry" />
        </mxCell>
        <mxCell id="s5Ump-VfHsAbrPqj1HHM-323" value="" style="edgeStyle=orthogonalEdgeStyle;rounded=0;sketch=1;orthogonalLoop=1;jettySize=auto;html=1;shadow=0;fontSize=15;" edge="1" parent="1" source="s5Ump-VfHsAbrPqj1HHM-317" target="s5Ump-VfHsAbrPqj1HHM-322">
          <mxGeometry relative="1" as="geometry" />
        </mxCell>
        <mxCell id="s5Ump-VfHsAbrPqj1HHM-317" value="&lt;font style=&quot;font-size: 17px&quot;&gt;INCR&lt;/font&gt;" style="rounded=0;whiteSpace=wrap;html=1;shadow=1;glass=1;labelBackgroundColor=#ffffff;sketch=1;fontSize=18;strokeColor=#82b366;strokeWidth=1;fillColor=#d5e8d4;align=center;fontStyle=1" vertex="1" parent="1">
          <mxGeometry x="2622" y="287" width="82" height="57" as="geometry" />
        </mxCell>
        <mxCell id="s5Ump-VfHsAbrPqj1HHM-320" value="" style="edgeStyle=orthogonalEdgeStyle;rounded=0;sketch=1;orthogonalLoop=1;jettySize=auto;html=1;shadow=0;fontSize=18;" edge="1" parent="1" source="s5Ump-VfHsAbrPqj1HHM-318" target="s5Ump-VfHsAbrPqj1HHM-319">
          <mxGeometry relative="1" as="geometry" />
        </mxCell>
        <mxCell id="s5Ump-VfHsAbrPqj1HHM-318" value="设置key,value，如果key存在，返回 0，否则，返回1" style="whiteSpace=wrap;html=1;rounded=0;shadow=1;fontSize=15;fontStyle=1;strokeWidth=1;glass=1;labelBackgroundColor=#ffffff;sketch=1;spacingLeft=1;spacingRight=1;" vertex="1" parent="1">
          <mxGeometry x="2765" y="176.75" width="169" height="61.5" as="geometry" />
        </mxCell>
        <mxCell id="s5Ump-VfHsAbrPqj1HHM-319" value="&lt;font style=&quot;font-size: 14px&quot;&gt;&lt;b&gt;setNx key,value&lt;/b&gt;&lt;br&gt;返回1，表示成功，否则表示失败&lt;/font&gt;" style="whiteSpace=wrap;html=1;rounded=0;shadow=1;fontSize=18;fontStyle=0;strokeWidth=1;glass=1;labelBackgroundColor=#ffffff;sketch=1;align=left;spacingLeft=5;" vertex="1" parent="1">
          <mxGeometry x="3027" y="167" width="170" height="81" as="geometry" />
        </mxCell>
        <mxCell id="s5Ump-VfHsAbrPqj1HHM-325" value="" style="edgeStyle=orthogonalEdgeStyle;rounded=0;sketch=1;orthogonalLoop=1;jettySize=auto;html=1;shadow=0;fontSize=16;" edge="1" parent="1" source="s5Ump-VfHsAbrPqj1HHM-322" target="s5Ump-VfHsAbrPqj1HHM-324">
          <mxGeometry relative="1" as="geometry" />
        </mxCell>
        <mxCell id="s5Ump-VfHsAbrPqj1HHM-322" value="将指定key的value原子递增" style="whiteSpace=wrap;html=1;rounded=0;shadow=1;fontSize=16;fontStyle=1;strokeWidth=1;glass=1;labelBackgroundColor=#ffffff;sketch=1;" vertex="1" parent="1">
          <mxGeometry x="2765" y="285.5" width="171" height="61.5" as="geometry" />
        </mxCell>
        <mxCell id="s5Ump-VfHsAbrPqj1HHM-324" value="&lt;b&gt;INCR key&lt;/b&gt;&lt;br&gt;如果key不存在，则初始化一个0再进行incr&lt;br&gt;如果key存在且value类型不对，incr返回失败" style="whiteSpace=wrap;html=1;rounded=0;shadow=1;fontSize=14;fontStyle=0;strokeWidth=1;glass=1;labelBackgroundColor=#ffffff;sketch=1;align=left;spacingLeft=7;" vertex="1" parent="1">
          <mxGeometry x="3027" y="273" width="171" height="139" as="geometry" />
        </mxCell>
        <mxCell id="s5Ump-VfHsAbrPqj1HHM-326" value="" style="endArrow=classic;html=1;shadow=0;fontSize=14;edgeStyle=orthogonalEdgeStyle;exitX=1;exitY=0.5;exitDx=0;exitDy=0;" edge="1" parent="1" source="s5Ump-VfHsAbrPqj1HHM-307">
          <mxGeometry width="50" height="50" relative="1" as="geometry">
            <mxPoint x="2553" y="206" as="sourcePoint" />
            <mxPoint x="2621" y="87" as="targetPoint" />
            <Array as="points">
              <mxPoint x="2550" y="206" />
              <mxPoint x="2580" y="206" />
              <mxPoint x="2580" y="87" />
            </Array>
          </mxGeometry>
        </mxCell>
        <mxCell id="s5Ump-VfHsAbrPqj1HHM-328" value="" style="endArrow=classic;html=1;shadow=0;fontSize=14;exitX=1;exitY=0.5;exitDx=0;exitDy=0;entryX=0;entryY=0.5;entryDx=0;entryDy=0;edgeStyle=orthogonalEdgeStyle;" edge="1" parent="1" source="s5Ump-VfHsAbrPqj1HHM-307" target="s5Ump-VfHsAbrPqj1HHM-317">
          <mxGeometry width="50" height="50" relative="1" as="geometry">
            <mxPoint x="2476" y="337" as="sourcePoint" />
            <mxPoint x="2526" y="287" as="targetPoint" />
            <Array as="points">
              <mxPoint x="2581" y="203" />
              <mxPoint x="2581" y="316" />
            </Array>
          </mxGeometry>
        </mxCell>
        <mxCell id="s5Ump-VfHsAbrPqj1HHM-329" value="" style="endArrow=classic;html=1;shadow=0;fontSize=14;entryX=0;entryY=0.5;entryDx=0;entryDy=0;" edge="1" parent="1" target="s5Ump-VfHsAbrPqj1HHM-316">
          <mxGeometry width="50" height="50" relative="1" as="geometry">
            <mxPoint x="2552" y="208" as="sourcePoint" />
            <mxPoint x="2542" y="312" as="targetPoint" />
          </mxGeometry>
        </mxCell>
        <mxCell id="s5Ump-VfHsAbrPqj1HHM-331" value="set&amp;nbsp; &lt;font color=&quot;#ea6b66&quot;&gt;name &quot;Hello&quot;&lt;/font&gt;" style="rounded=0;whiteSpace=wrap;html=1;shadow=1;glass=1;labelBackgroundColor=#ffffff;sketch=1;fontSize=18;strokeColor=#000000;strokeWidth=1;fillColor=#ffffff;gradientColor=none;align=center;" vertex="1" parent="1">
          <mxGeometry x="2242" y="651" width="154" height="59" as="geometry" />
        </mxCell>
        <mxCell id="s5Ump-VfHsAbrPqj1HHM-332" value="" style="endArrow=classic;html=1;shadow=0;fontSize=14;exitX=1;exitY=0.5;exitDx=0;exitDy=0;sketch=1;" edge="1" parent="1" source="s5Ump-VfHsAbrPqj1HHM-331">
          <mxGeometry width="50" height="50" relative="1" as="geometry">
            <mxPoint x="2587" y="700" as="sourcePoint" />
            <mxPoint x="2471" y="681" as="targetPoint" />
          </mxGeometry>
        </mxCell>
        <mxCell id="s5Ump-VfHsAbrPqj1HHM-333" value="len=5" style="rounded=0;whiteSpace=wrap;html=1;shadow=1;glass=1;labelBackgroundColor=#ffffff;sketch=1;fontSize=17;strokeWidth=1;align=center;" vertex="1" parent="1">
          <mxGeometry x="2490" y="578" width="116" height="39" as="geometry" />
        </mxCell>
        <mxCell id="s5Ump-VfHsAbrPqj1HHM-334" value="alloc=5" style="rounded=0;whiteSpace=wrap;html=1;shadow=1;glass=1;labelBackgroundColor=#ffffff;sketch=1;fontSize=17;strokeWidth=1;align=center;" vertex="1" parent="1">
          <mxGeometry x="2490" y="627" width="116" height="39" as="geometry" />
        </mxCell>
        <mxCell id="s5Ump-VfHsAbrPqj1HHM-335" value="flags=001" style="rounded=0;whiteSpace=wrap;html=1;shadow=1;glass=1;labelBackgroundColor=#ffffff;sketch=1;fontSize=17;strokeWidth=1;align=center;" vertex="1" parent="1">
          <mxGeometry x="2490" y="676" width="116" height="39" as="geometry" />
        </mxCell>
        <mxCell id="s5Ump-VfHsAbrPqj1HHM-336" value="buf[]" style="rounded=0;whiteSpace=wrap;html=1;shadow=1;glass=1;labelBackgroundColor=#ffffff;sketch=1;fontSize=17;strokeWidth=1;align=center;" vertex="1" parent="1">
          <mxGeometry x="2490" y="727" width="115" height="39" as="geometry" />
        </mxCell>
        <mxCell id="s5Ump-VfHsAbrPqj1HHM-339" value="" style="endArrow=classic;html=1;shadow=0;fontSize=17;exitX=1;exitY=0.5;exitDx=0;exitDy=0;sketch=1;" edge="1" parent="1" source="s5Ump-VfHsAbrPqj1HHM-336">
          <mxGeometry width="50" height="50" relative="1" as="geometry">
            <mxPoint x="2602" y="534" as="sourcePoint" />
            <mxPoint x="2716" y="747" as="targetPoint" />
          </mxGeometry>
        </mxCell>
        <mxCell id="s5Ump-VfHsAbrPqj1HHM-340" value="" style="shape=table;html=1;whiteSpace=wrap;startSize=0;container=1;collapsible=0;childLayout=tableLayout;rounded=0;shadow=1;glass=1;labelBackgroundColor=#ffffff;sketch=1;fontSize=17;strokeWidth=1;align=center;fontStyle=1" vertex="1" parent="1">
          <mxGeometry x="2716" y="727" width="360" height="40" as="geometry" />
        </mxCell>
        <mxCell id="s5Ump-VfHsAbrPqj1HHM-341" value="" style="shape=partialRectangle;html=1;whiteSpace=wrap;collapsible=0;dropTarget=0;pointerEvents=0;fillColor=none;top=0;left=0;bottom=0;right=0;points=[[0,0.5],[1,0.5]];portConstraint=eastwest;" vertex="1" parent="s5Ump-VfHsAbrPqj1HHM-340">
          <mxGeometry width="360" height="40" as="geometry" />
        </mxCell>
        <mxCell id="s5Ump-VfHsAbrPqj1HHM-342" value="H" style="shape=partialRectangle;html=1;whiteSpace=wrap;connectable=0;fillColor=none;top=0;left=0;bottom=0;right=0;overflow=hidden;fontStyle=1;fontSize=15;" vertex="1" parent="s5Ump-VfHsAbrPqj1HHM-341">
          <mxGeometry width="60" height="40" as="geometry" />
        </mxCell>
        <mxCell id="s5Ump-VfHsAbrPqj1HHM-343" value="E" style="shape=partialRectangle;html=1;whiteSpace=wrap;connectable=0;fillColor=none;top=0;left=0;bottom=0;right=0;overflow=hidden;fontStyle=1;fontSize=15;" vertex="1" parent="s5Ump-VfHsAbrPqj1HHM-341">
          <mxGeometry x="60" width="60" height="40" as="geometry" />
        </mxCell>
        <mxCell id="s5Ump-VfHsAbrPqj1HHM-344" value="L" style="shape=partialRectangle;html=1;whiteSpace=wrap;connectable=0;fillColor=none;top=0;left=0;bottom=0;right=0;overflow=hidden;fontStyle=1;fontSize=15;" vertex="1" parent="s5Ump-VfHsAbrPqj1HHM-341">
          <mxGeometry x="120" width="60" height="40" as="geometry" />
        </mxCell>
        <mxCell id="s5Ump-VfHsAbrPqj1HHM-355" value="L" style="shape=partialRectangle;html=1;whiteSpace=wrap;connectable=0;fillColor=none;top=0;left=0;bottom=0;right=0;overflow=hidden;fontStyle=1;fontSize=15;" vertex="1" parent="s5Ump-VfHsAbrPqj1HHM-341">
          <mxGeometry x="180" width="60" height="40" as="geometry" />
        </mxCell>
        <mxCell id="s5Ump-VfHsAbrPqj1HHM-354" value="O" style="shape=partialRectangle;html=1;whiteSpace=wrap;connectable=0;fillColor=none;top=0;left=0;bottom=0;right=0;overflow=hidden;fontStyle=1;fontSize=15;" vertex="1" parent="s5Ump-VfHsAbrPqj1HHM-341">
          <mxGeometry x="240" width="60" height="40" as="geometry" />
        </mxCell>
        <mxCell id="s5Ump-VfHsAbrPqj1HHM-353" value="\0" style="shape=partialRectangle;html=1;whiteSpace=wrap;connectable=0;fillColor=none;top=0;left=0;bottom=0;right=0;overflow=hidden;fontStyle=1;fontSize=15;" vertex="1" parent="s5Ump-VfHsAbrPqj1HHM-341">
          <mxGeometry x="300" width="60" height="40" as="geometry" />
        </mxCell>
        <mxCell id="s5Ump-VfHsAbrPqj1HHM-360" value="sdshd8" style="text;html=1;strokeColor=none;fillColor=none;align=center;verticalAlign=middle;whiteSpace=wrap;rounded=0;shadow=1;glass=1;labelBackgroundColor=#ffffff;sketch=1;fontSize=20;fontStyle=1" vertex="1" parent="1">
          <mxGeometry x="2467" y="534" width="100" height="35" as="geometry" />
        </mxCell>
        <mxCell id="s5Ump-VfHsAbrPqj1HHM-361" value="List类型常用操作" style="rounded=0;whiteSpace=wrap;html=1;shadow=1;glass=1;labelBackgroundColor=#ffffff;sketch=1;fontSize=18;strokeColor=#000000;strokeWidth=1;fillColor=#ffffff;gradientColor=none;align=center;" vertex="1" parent="1">
          <mxGeometry x="2259" y="1239" width="214" height="60" as="geometry" />
        </mxCell>
        <mxCell id="s5Ump-VfHsAbrPqj1HHM-362" value="" style="edgeStyle=orthogonalEdgeStyle;rounded=0;sketch=1;orthogonalLoop=1;jettySize=auto;html=1;shadow=0;fontSize=18;" edge="1" parent="1" source="s5Ump-VfHsAbrPqj1HHM-363" target="s5Ump-VfHsAbrPqj1HHM-365">
          <mxGeometry relative="1" as="geometry" />
        </mxCell>
        <mxCell id="s5Ump-VfHsAbrPqj1HHM-363" value="&lt;font style=&quot;font-size: 16px&quot;&gt;LPUSH&lt;br&gt;RPUSH&lt;/font&gt;" style="rounded=0;whiteSpace=wrap;html=1;shadow=1;glass=1;labelBackgroundColor=#ffffff;sketch=1;fontSize=18;strokeColor=#82b366;strokeWidth=1;fillColor=#d5e8d4;align=center;fontStyle=1" vertex="1" parent="1">
          <mxGeometry x="2545" y="1122" width="82" height="57" as="geometry" />
        </mxCell>
        <mxCell id="s5Ump-VfHsAbrPqj1HHM-364" value="" style="edgeStyle=orthogonalEdgeStyle;rounded=0;sketch=1;orthogonalLoop=1;jettySize=auto;html=1;shadow=0;fontSize=18;entryX=0;entryY=0.5;entryDx=0;entryDy=0;" edge="1" parent="1" source="s5Ump-VfHsAbrPqj1HHM-365" target="s5Ump-VfHsAbrPqj1HHM-366">
          <mxGeometry relative="1" as="geometry" />
        </mxCell>
        <mxCell id="s5Ump-VfHsAbrPqj1HHM-365" value="向list中添加元素" style="whiteSpace=wrap;html=1;rounded=0;shadow=1;fontSize=18;fontStyle=1;strokeWidth=1;glass=1;labelBackgroundColor=#ffffff;sketch=1;" vertex="1" parent="1">
          <mxGeometry x="2688" y="1120.5" width="169" height="61.5" as="geometry" />
        </mxCell>
        <mxCell id="s5Ump-VfHsAbrPqj1HHM-366" value="&lt;b style=&quot;font-size: 14px;&quot;&gt;LPUSH&lt;br style=&quot;font-size: 14px;&quot;&gt;从list左边添加元素&lt;br style=&quot;font-size: 14px;&quot;&gt;&lt;/b&gt;" style="whiteSpace=wrap;html=1;rounded=0;shadow=1;fontSize=14;fontStyle=0;strokeWidth=1;glass=1;labelBackgroundColor=#ffffff;sketch=1;align=left;spacingLeft=11;" vertex="1" parent="1">
          <mxGeometry x="2950" y="1011" width="176" height="53" as="geometry" />
        </mxCell>
        <mxCell id="s5Ump-VfHsAbrPqj1HHM-367" value="&lt;b style=&quot;font-size: 14px;&quot;&gt;RPUS&lt;br style=&quot;font-size: 14px;&quot;&gt;从list右边添加元素&lt;br style=&quot;font-size: 14px;&quot;&gt;&lt;/b&gt;" style="whiteSpace=wrap;html=1;rounded=0;shadow=1;fontSize=14;fontStyle=0;strokeWidth=1;glass=1;labelBackgroundColor=#ffffff;sketch=1;align=left;spacingLeft=11;" vertex="1" parent="1">
          <mxGeometry x="2950" y="1080" width="174" height="49" as="geometry" />
        </mxCell>
        <mxCell id="s5Ump-VfHsAbrPqj1HHM-368" value="" style="endArrow=classic;html=1;shadow=0;fontSize=18;exitX=1;exitY=0.5;exitDx=0;exitDy=0;sketch=1;entryX=0;entryY=0.75;entryDx=0;entryDy=0;edgeStyle=orthogonalEdgeStyle;" edge="1" parent="1" source="s5Ump-VfHsAbrPqj1HHM-365" target="s5Ump-VfHsAbrPqj1HHM-367">
          <mxGeometry width="50" height="50" relative="1" as="geometry">
            <mxPoint x="2921" y="1290" as="sourcePoint" />
            <mxPoint x="2950" y="1214" as="targetPoint" />
          </mxGeometry>
        </mxCell>
        <mxCell id="s5Ump-VfHsAbrPqj1HHM-369" value="" style="edgeStyle=orthogonalEdgeStyle;rounded=0;sketch=1;orthogonalLoop=1;jettySize=auto;html=1;shadow=0;fontSize=15;" edge="1" parent="1" source="s5Ump-VfHsAbrPqj1HHM-370" target="s5Ump-VfHsAbrPqj1HHM-374">
          <mxGeometry relative="1" as="geometry" />
        </mxCell>
        <mxCell id="s5Ump-VfHsAbrPqj1HHM-370" value="&lt;font style=&quot;font-size: 16px&quot;&gt;LPOP&lt;br&gt;RPOP&lt;/font&gt;" style="rounded=0;whiteSpace=wrap;html=1;shadow=1;glass=1;labelBackgroundColor=#ffffff;sketch=1;fontSize=18;strokeColor=#82b366;strokeWidth=1;fillColor=#d5e8d4;align=center;fontStyle=1" vertex="1" parent="1">
          <mxGeometry x="2545" y="1245" width="82" height="57" as="geometry" />
        </mxCell>
        <mxCell id="s5Ump-VfHsAbrPqj1HHM-371" value="" style="edgeStyle=orthogonalEdgeStyle;rounded=0;sketch=1;orthogonalLoop=1;jettySize=auto;html=1;shadow=0;fontSize=15;" edge="1" parent="1" source="s5Ump-VfHsAbrPqj1HHM-372" target="s5Ump-VfHsAbrPqj1HHM-377">
          <mxGeometry relative="1" as="geometry" />
        </mxCell>
        <mxCell id="s5Ump-VfHsAbrPqj1HHM-372" value="" style="rounded=0;whiteSpace=wrap;html=1;shadow=1;glass=1;labelBackgroundColor=#ffffff;sketch=1;fontSize=18;strokeColor=#82b366;strokeWidth=1;fillColor=#d5e8d4;align=center;fontStyle=1" vertex="1" parent="1">
          <mxGeometry x="2545" y="1353" width="82" height="57" as="geometry" />
        </mxCell>
        <mxCell id="s5Ump-VfHsAbrPqj1HHM-373" value="" style="edgeStyle=orthogonalEdgeStyle;rounded=0;sketch=1;orthogonalLoop=1;jettySize=auto;html=1;shadow=0;fontSize=18;entryX=0;entryY=0.5;entryDx=0;entryDy=0;" edge="1" parent="1" source="s5Ump-VfHsAbrPqj1HHM-374" target="s5Ump-VfHsAbrPqj1HHM-375">
          <mxGeometry relative="1" as="geometry" />
        </mxCell>
        <mxCell id="s5Ump-VfHsAbrPqj1HHM-374" value="从list中取出一个元素" style="whiteSpace=wrap;html=1;rounded=0;shadow=1;fontSize=15;fontStyle=1;strokeWidth=1;glass=1;labelBackgroundColor=#ffffff;sketch=1;spacingLeft=1;spacingRight=1;" vertex="1" parent="1">
          <mxGeometry x="2688" y="1242.75" width="169" height="61.5" as="geometry" />
        </mxCell>
        <mxCell id="s5Ump-VfHsAbrPqj1HHM-375" value="&lt;font style=&quot;font-size: 14px&quot;&gt;&lt;b&gt;LPOP：从队列左边取出一个元素&lt;br&gt;&lt;/b&gt;&lt;/font&gt;" style="whiteSpace=wrap;html=1;rounded=0;shadow=1;fontSize=18;fontStyle=0;strokeWidth=1;glass=1;labelBackgroundColor=#ffffff;sketch=1;align=left;spacingLeft=5;" vertex="1" parent="1">
          <mxGeometry x="2950" y="1180" width="174" height="54" as="geometry" />
        </mxCell>
        <mxCell id="s5Ump-VfHsAbrPqj1HHM-376" value="" style="edgeStyle=orthogonalEdgeStyle;rounded=0;sketch=1;orthogonalLoop=1;jettySize=auto;html=1;shadow=0;fontSize=16;" edge="1" parent="1" source="s5Ump-VfHsAbrPqj1HHM-377" target="s5Ump-VfHsAbrPqj1HHM-378">
          <mxGeometry relative="1" as="geometry" />
        </mxCell>
        <mxCell id="s5Ump-VfHsAbrPqj1HHM-377" value="将指定key的value原子递增" style="whiteSpace=wrap;html=1;rounded=0;shadow=1;fontSize=16;fontStyle=1;strokeWidth=1;glass=1;labelBackgroundColor=#ffffff;sketch=1;" vertex="1" parent="1">
          <mxGeometry x="2688" y="1351.5" width="171" height="61.5" as="geometry" />
        </mxCell>
        <mxCell id="s5Ump-VfHsAbrPqj1HHM-378" value="&lt;b&gt;INCR key&lt;/b&gt;&lt;br&gt;如果key不存在，则初始化一个0再进行incr&lt;br&gt;如果key存在且value类型不对，incr返回失败" style="whiteSpace=wrap;html=1;rounded=0;shadow=1;fontSize=14;fontStyle=0;strokeWidth=1;glass=1;labelBackgroundColor=#ffffff;sketch=1;align=left;spacingLeft=7;" vertex="1" parent="1">
          <mxGeometry x="2950" y="1339" width="171" height="139" as="geometry" />
        </mxCell>
        <mxCell id="s5Ump-VfHsAbrPqj1HHM-379" value="" style="endArrow=classic;html=1;shadow=0;fontSize=14;edgeStyle=orthogonalEdgeStyle;exitX=1;exitY=0.5;exitDx=0;exitDy=0;" edge="1" parent="1" source="s5Ump-VfHsAbrPqj1HHM-361">
          <mxGeometry width="50" height="50" relative="1" as="geometry">
            <mxPoint x="2476" y="1272" as="sourcePoint" />
            <mxPoint x="2544" y="1153" as="targetPoint" />
            <Array as="points">
              <mxPoint x="2473" y="1272" />
              <mxPoint x="2503" y="1272" />
              <mxPoint x="2503" y="1153" />
            </Array>
          </mxGeometry>
        </mxCell>
        <mxCell id="s5Ump-VfHsAbrPqj1HHM-380" value="" style="endArrow=classic;html=1;shadow=0;fontSize=14;exitX=1;exitY=0.5;exitDx=0;exitDy=0;entryX=0;entryY=0.5;entryDx=0;entryDy=0;edgeStyle=orthogonalEdgeStyle;" edge="1" parent="1" source="s5Ump-VfHsAbrPqj1HHM-361" target="s5Ump-VfHsAbrPqj1HHM-372">
          <mxGeometry width="50" height="50" relative="1" as="geometry">
            <mxPoint x="2399" y="1403" as="sourcePoint" />
            <mxPoint x="2449" y="1353" as="targetPoint" />
            <Array as="points">
              <mxPoint x="2504" y="1269" />
              <mxPoint x="2504" y="1382" />
            </Array>
          </mxGeometry>
        </mxCell>
        <mxCell id="s5Ump-VfHsAbrPqj1HHM-381" value="" style="endArrow=classic;html=1;shadow=0;fontSize=14;entryX=0;entryY=0.5;entryDx=0;entryDy=0;" edge="1" parent="1" target="s5Ump-VfHsAbrPqj1HHM-370">
          <mxGeometry width="50" height="50" relative="1" as="geometry">
            <mxPoint x="2475" y="1274" as="sourcePoint" />
            <mxPoint x="2465" y="1378" as="targetPoint" />
          </mxGeometry>
        </mxCell>
        <mxCell id="s5Ump-VfHsAbrPqj1HHM-383" value="&lt;font style=&quot;font-size: 14px&quot;&gt;&lt;b&gt;RPOP：从队列又边取出一个元素&lt;br&gt;&lt;/b&gt;&lt;/font&gt;" style="whiteSpace=wrap;html=1;rounded=0;shadow=1;fontSize=18;fontStyle=0;strokeWidth=1;glass=1;labelBackgroundColor=#ffffff;sketch=1;align=left;spacingLeft=5;" vertex="1" parent="1">
          <mxGeometry x="2952" y="1261" width="174" height="54" as="geometry" />
        </mxCell>
        <mxCell id="s5Ump-VfHsAbrPqj1HHM-384" value="" style="endArrow=classic;html=1;shadow=0;fontSize=14;exitX=1;exitY=0.5;exitDx=0;exitDy=0;entryX=0;entryY=0.5;entryDx=0;entryDy=0;edgeStyle=orthogonalEdgeStyle;" edge="1" parent="1" source="s5Ump-VfHsAbrPqj1HHM-374" target="s5Ump-VfHsAbrPqj1HHM-383">
          <mxGeometry width="50" height="50" relative="1" as="geometry">
            <mxPoint x="3200" y="1286" as="sourcePoint" />
            <mxPoint x="3250" y="1236" as="targetPoint" />
          </mxGeometry>
        </mxCell>
      </root>
    </mxGraphModel>
  </diagram>
</mxfile>
